<?xml version="1.0" standalone="no"?>
<!DOCTYPE svg PUBLIC "-//W3C//DTD SVG 20010904//EN"
 "http://www.w3.org/TR/2001/REC-SVG-20010904/DTD/svg10.dtd">
<svg version="1.0" xmlns="http://www.w3.org/2000/svg"
 width="1280.000000pt" height="1280.000000pt" viewBox="0 0 1280.000000 1280.000000"
 preserveAspectRatio="xMidYMid meet">
<metadata>
Created by potrace 1.11, written by Peter Selinger 2001-2013
</metadata>
<g transform="translate(0.000000,1280.000000) scale(0.100000,-0.100000)"
fill="#000000" stroke="none">
<path d="M0 6400 l0 -6400 6400 0 6400 0 0 6400 0 6400 -6400 0 -6400 0 0
-6400z m6662 5368 c12 -7 29 -20 38 -29 10 -9 21 -18 26 -20 21 -9 93 -118
108 -163 13 -39 15 -69 10 -150 -9 -132 -8 -144 6 -161 10 -12 16 -13 26 -4
11 9 14 8 14 -2 1 -8 11 -3 25 14 13 15 28 27 33 27 4 0 24 12 43 26 19 14 72
45 119 69 47 23 103 52 125 64 33 17 60 21 147 22 99 1 110 -1 158 -27 74 -40
112 -88 140 -174 25 -76 29 -144 17 -247 -5 -41 -3 -51 7 -47 8 3 29 -1 48 -9
38 -16 129 -12 125 6 -1 5 18 15 43 22 25 7 80 31 122 54 96 52 157 63 258 46
41 -7 84 -16 95 -20 39 -15 102 -60 113 -80 56 -104 87 -226 80 -311 -4 -47
-10 -60 -39 -87 -19 -17 -37 -31 -40 -30 -3 1 -12 -9 -19 -22 -16 -29 -76 -53
-93 -36 -6 6 -18 11 -27 11 -9 0 -21 5 -28 12 -15 15 -31 18 -127 25 -78 5
-81 4 -121 -27 -28 -22 -46 -46 -54 -74 -17 -52 -67 -134 -91 -146 -10 -6 -36
-10 -58 -10 -55 0 -71 -8 -71 -37 0 -17 -20 -45 -64 -89 -35 -35 -68 -64 -74
-64 -6 0 -12 -4 -14 -10 -3 -9 -85 10 -133 32 -22 10 -112 28 -165 33 -19 2
-49 -3 -66 -10 -36 -15 -74 -71 -74 -109 0 -15 -18 -50 -46 -86 -43 -57 -48
-60 -88 -60 -39 0 -46 -4 -68 -37 -24 -35 -69 -128 -81 -163 -3 -9 -30 -20
-73 -29 -82 -16 -112 -16 -133 3 -22 18 -44 25 -131 42 -156 29 -206 10 -221
-88 -9 -56 -23 -78 -50 -78 -10 0 -31 -19 -49 -45 -26 -38 -36 -45 -65 -45
-21 0 -44 9 -63 25 -17 14 -37 25 -46 25 -18 0 -31 -40 -23 -70 9 -33 -11
-152 -31 -192 l-19 -37 -21 24 c-19 22 -26 24 -102 20 -81 -4 -82 -4 -76 18 5
21 3 23 -32 19 -20 -3 -46 -11 -57 -18 -25 -16 -53 -18 -170 -8 -108 8 -114 4
-122 -86 -6 -65 -35 -110 -72 -110 -12 0 -26 -13 -38 -37 -19 -40 -58 -58
-101 -48 -13 3 -44 28 -69 55 -25 28 -50 50 -55 50 -8 0 -1 -107 8 -122 7 -11
-45 -108 -61 -114 -18 -7 -16 -51 4 -82 17 -28 27 -27 153 16 121 42 208 55
324 50 96 -3 105 -6 195 -51 52 -26 108 -56 124 -66 58 -37 60 -32 36 69 -20
86 -15 121 30 191 23 35 45 66 49 69 5 3 11 19 15 35 11 51 26 83 41 89 8 3
14 11 14 18 0 14 6 17 160 76 122 46 221 65 340 65 75 1 95 -3 169 -35 47 -20
91 -34 98 -31 8 3 13 24 13 59 0 63 13 98 64 173 20 29 36 60 36 70 0 9 9 34
19 57 13 29 28 44 52 53 19 7 42 17 51 22 10 5 23 9 30 9 7 0 35 11 61 24 56
29 251 76 322 78 28 1 79 -6 115 -16 35 -9 76 -14 91 -11 23 5 27 13 33 52 3
25 22 74 41 109 19 34 35 69 35 77 0 8 7 20 15 27 8 7 15 20 15 29 0 18 46 50
100 70 48 18 67 26 132 55 31 14 60 26 64 26 4 0 20 12 35 26 43 41 141 50
242 22 58 -16 84 -19 104 -12 33 11 94 95 113 155 8 24 27 60 43 80 23 30 37
38 75 43 26 3 57 12 69 19 107 60 198 105 246 121 53 18 67 19 150 8 94 -12
157 -30 157 -45 0 -4 4 -6 9 -3 5 4 21 -9 35 -26 15 -18 30 -38 35 -44 14 -17
61 -135 72 -178 5 -21 7 -46 4 -56 -3 -10 -1 -21 4 -25 12 -7 3 -34 -41 -123
l-31 -62 21 -23 c31 -33 64 -32 90 2 16 22 36 33 79 42 32 7 88 28 126 46 37
18 74 33 81 33 7 0 19 6 25 14 6 7 30 16 52 19 22 3 50 14 61 24 17 15 37 18
127 17 205 -2 321 -74 336 -209 1 -5 16 -40 33 -76 23 -48 32 -80 32 -117 0
-29 -4 -52 -8 -52 -5 0 -15 -12 -23 -27 -7 -16 -24 -39 -36 -52 -22 -22 -28
-43 -24 -83 3 -28 -15 -29 -53 -3 -19 13 -52 27 -73 31 -21 4 -43 11 -50 16
-6 5 -69 10 -140 11 -106 2 -134 -1 -160 -16 -47 -25 -72 -80 -66 -144 8 -79
0 -97 -49 -113 -52 -17 -67 -35 -68 -77 0 -33 -14 -51 -25 -33 -12 19 -25 10
-25 -17 0 -26 -19 -71 -20 -48 0 6 -7 2 -14 -8 -12 -16 -22 -17 -97 -8 -46 5
-102 14 -124 20 -43 11 -223 15 -271 5 -44 -9 -71 -58 -82 -150 -6 -44 -10
-90 -10 -104 -1 -37 -36 -60 -92 -60 -34 0 -52 5 -65 20 -26 28 -39 25 -29 -7
12 -43 13 -147 2 -160 -6 -7 -16 -13 -24 -13 -33 0 -154 -103 -154 -131 0 -13
-44 -11 -58 3 -7 7 -12 9 -12 5 0 -4 -21 4 -47 17 -66 34 -175 55 -242 46 -45
-6 -60 -13 -88 -43 -29 -32 -33 -44 -33 -90 0 -55 -12 -77 -42 -77 -13 0 -18
-8 -18 -27 0 -36 -9 -49 -43 -62 -42 -16 -51 -14 -88 19 -19 16 -37 30 -40 30
-13 0 -19 -49 -9 -75 18 -48 4 -135 -22 -135 -19 0 -57 47 -60 75 -4 30 -4 30
-12 -8 -7 -31 -5 -40 10 -51 17 -13 17 -14 -4 -25 -11 -6 -30 -28 -42 -49 -13
-23 -39 -48 -65 -62 l-43 -24 -69 31 c-99 45 -128 52 -223 57 -77 3 -88 2
-117 -20 -28 -21 -32 -31 -38 -90 -8 -67 -22 -87 -48 -66 -10 9 -12 4 -9 -24
6 -52 -19 -84 -67 -84 -31 0 -46 7 -68 30 -26 28 -63 41 -63 21 0 -4 5 -32 10
-62 7 -35 7 -56 0 -63 -5 -5 -10 -18 -10 -28 0 -10 -8 -19 -17 -19 -17 -1 -17
-2 0 -6 9 -2 17 -9 17 -15 0 -5 -7 -7 -16 -4 -49 19 -62 17 -88 -10 -17 -19
-24 -35 -20 -50 7 -26 -19 -39 -48 -23 -11 6 -37 12 -57 14 -20 1 -47 5 -59 9
-12 4 -30 3 -39 -3 -13 -7 -28 -5 -53 8 -63 33 -105 41 -207 41 -74 0 -104 -4
-112 -14 -7 -8 -23 -17 -37 -20 -25 -7 -25 -8 -19 -72 10 -91 9 -112 -5 -129
-19 -23 -38 -18 -55 15 -24 46 -36 37 -29 -22 5 -48 3 -55 -19 -77 -23 -20
-29 -22 -59 -12 -18 6 -41 23 -51 39 -11 15 -41 40 -68 55 -44 24 -49 25 -49
9 0 -10 7 -27 15 -38 19 -25 19 -45 0 -38 -19 8 -19 -11 -2 -62 7 -22 12 -64
12 -94 0 -55 0 -55 -32 -58 -19 -2 -33 1 -33 7 0 6 -7 11 -15 11 -8 0 -15 7
-15 16 0 15 -2 15 -22 1 -13 -8 -24 -21 -24 -28 -3 -31 -6 -33 -14 -14 -7 16
-9 17 -9 3 -1 -9 -17 -29 -36 -44 -19 -14 -35 -32 -35 -39 0 -7 -7 -15 -15
-19 -8 -3 -15 -12 -15 -21 0 -22 -8 -19 -40 17 -23 24 -32 29 -43 20 -10 -8
-20 -8 -41 3 -16 8 -34 15 -41 15 -7 0 -19 10 -27 21 -12 20 -24 22 -123 24
-103 3 -112 1 -147 -22 l-38 -26 0 -88 c0 -78 -3 -93 -27 -133 -17 -28 -38
-49 -53 -53 -14 -3 -31 -13 -37 -22 -11 -14 -14 -14 -24 -1 -8 11 -9 7 -4 -20
14 -71 13 -75 -22 -72 -22 2 -34 -2 -41 -14 -10 -17 -12 -17 -52 1 -23 10 -59
39 -81 64 l-40 45 2 116 c3 123 -1 140 -30 140 -14 0 -20 10 -25 40 -5 31 -11
40 -26 40 -26 0 -35 18 -18 38 14 16 14 52 0 52 -8 0 -38 -65 -48 -104 -11
-43 -24 -40 -24 6 0 32 15 73 55 157 31 63 53 121 51 128 -4 8 -23 13 -55 13
-76 0 -109 -39 -102 -119 3 -32 -18 -81 -34 -81 -8 0 -21 20 -31 45 l-17 45
52 105 c28 57 56 107 61 110 6 4 5 16 -4 32 -17 33 -119 62 -224 62 -60 1 -79
-3 -111 -23 -41 -26 -51 -54 -51 -144 0 -31 -8 -53 -30 -84 -16 -22 -30 -49
-30 -59 0 -11 -9 -19 -22 -21 -18 -2 -23 -9 -21 -28 4 -49 -6 -66 -48 -84 -71
-32 -130 -2 -197 99 -26 38 -27 45 -24 152 3 103 1 111 -15 107 -15 -4 -23 6
-37 46 -19 54 -42 73 -57 49 -6 -10 -9 -3 -9 21 0 42 37 133 72 181 14 19 38
60 54 92 49 98 133 167 244 199 198 57 222 61 310 54 132 -10 206 -31 296 -86
45 -28 87 -50 93 -50 6 0 11 -3 11 -8 0 -4 23 -25 51 -47 64 -51 92 -95 83
-130 -4 -15 -2 -43 4 -63 6 -21 16 -61 23 -89 13 -64 22 -66 129 -22 62 25 94
31 183 36 184 10 278 -11 412 -92 22 -14 50 -25 63 -25 20 0 22 5 22 54 0 30
-5 67 -10 81 -9 22 -4 39 30 107 49 99 52 128 13 128 -40 0 -105 -20 -125 -38
-10 -8 -18 -25 -18 -38 0 -32 -27 -56 -54 -48 -35 11 -38 20 -16 56 11 20 32
64 45 98 14 35 32 71 41 81 26 28 3 48 -54 48 -26 0 -76 7 -112 15 -81 20
-131 20 -175 2 -37 -16 -37 -15 -40 -118 -1 -46 -6 -63 -25 -83 -27 -29 -42
-31 -60 -10 -21 25 -31 17 -25 -19 5 -27 2 -41 -16 -65 -12 -17 -31 -31 -41
-31 -10 0 -38 19 -62 43 -24 23 -62 60 -85 81 -44 43 -46 47 -31 77 8 15 7 19
-4 19 -10 0 -13 6 -10 15 9 21 -14 19 -27 -4 -27 -42 -67 8 -74 91 -2 24 -5
50 -6 58 -8 58 3 101 43 161 35 54 64 130 71 189 2 15 -8 17 -103 19 -26 1
-38 7 -45 23 -6 14 -26 25 -55 33 -25 7 -81 22 -124 34 -44 11 -101 21 -127
21 -40 0 -51 -4 -73 -31 -22 -25 -26 -41 -26 -90 0 -77 -29 -139 -65 -139 -13
0 -27 5 -30 11 -4 5 -16 -8 -27 -30 -18 -37 -24 -41 -57 -41 -33 0 -47 9 -107
68 -75 72 -91 97 -68 106 8 3 14 15 14 26 0 16 -7 20 -32 20 -45 0 -53 7 -71
65 -36 110 -24 209 32 270 38 42 61 81 61 105 0 28 -34 26 -54 -2 -9 -12 -16
-19 -16 -15 0 12 -73 -29 -94 -52 -11 -12 -25 -21 -33 -21 -21 0 -8 33 44 112
25 37 42 72 38 77 -11 19 -136 51 -219 57 -73 6 -84 4 -108 -15 -20 -16 -29
-34 -33 -69 -12 -92 -41 -130 -88 -119 -17 4 -27 -2 -42 -26 -15 -23 -29 -33
-52 -35 -40 -4 -50 1 -113 62 -48 46 -51 52 -46 85 8 46 8 59 0 98 l-6 33 -17
-23 c-10 -12 -21 -30 -24 -40 -8 -21 -44 -18 -39 3 2 8 -1 23 -7 34 -5 12 -17
51 -27 89 -16 65 -16 68 2 103 17 33 90 94 111 94 5 0 17 10 27 23 11 12 32
37 48 55 29 33 39 94 18 107 -5 3 -10 20 -10 36 0 45 -30 127 -48 134 -27 11
-157 18 -186 11 -14 -3 -34 -16 -45 -27 -11 -12 -24 -18 -30 -14 -7 3 -11 -2
-11 -14 0 -11 -4 -23 -10 -26 -5 -3 -10 -15 -10 -25 0 -13 -9 -21 -27 -25
-100 -20 -118 -30 -140 -74 -15 -29 -20 -53 -16 -73 5 -23 0 -35 -23 -59 -25
-26 -34 -30 -65 -25 -33 5 -36 3 -47 -28 -14 -37 -49 -58 -83 -49 -27 7 -129
110 -129 130 0 7 -4 13 -8 13 -5 0 -19 26 -32 58 -12 31 -32 67 -42 79 -29 32
-40 90 -26 150 9 41 19 58 55 90 25 21 63 57 85 81 23 23 45 42 49 42 4 0 21
14 39 30 18 17 37 30 43 30 6 0 21 9 33 21 40 38 220 78 356 79 31 0 59 -4 62
-9 3 -4 18 -11 33 -14 27 -5 120 -63 198 -122 19 -15 51 -49 70 -77 20 -27 41
-48 47 -46 32 11 23 113 -10 125 -22 9 -33 21 -55 60 -17 30 -17 65 -1 138 5
26 51 77 91 100 18 10 30 22 27 27 -3 4 1 8 8 8 7 0 30 16 50 35 20 19 40 35
45 35 4 0 19 10 33 23 42 38 94 64 144 71 26 4 65 14 86 21 21 7 73 17 117 20
70 6 84 5 136 -19 32 -14 71 -34 87 -46 36 -26 60 -26 60 0 0 12 7 32 16 45
13 21 20 39 23 66 2 14 50 58 80 74 18 9 55 40 84 68 67 68 142 121 192 137
22 7 58 19 80 27 21 8 78 19 126 24 79 9 93 8 145 -12 78 -28 104 -33 104 -21
0 5 12 15 28 21 16 7 34 28 46 52 16 36 57 72 117 104 11 5 19 13 19 17 0 26
143 148 174 148 8 0 17 4 20 9 3 5 27 14 53 20 27 7 59 20 73 29 30 19 178 24
201 6 31 -25 138 -27 123 -3 -3 5 4 9 16 9 11 0 23 8 27 18 11 30 41 51 82 58
28 4 42 13 47 26 10 32 97 114 150 140 62 31 98 51 104 59 26 30 218 42 262
17z m743 -1859 c0 -27 -28 -38 -50 -19 -20 17 -19 25 8 38 30 15 42 10 42 -19z
m-5305 -85 c91 -32 238 -144 277 -212 15 -26 30 -49 34 -52 13 -10 30 -80 24
-100 -9 -27 -27 -25 -55 5 -61 65 -166 44 -257 -51 -23 -24 -49 -44 -59 -44
-10 0 -25 -6 -33 -13 -19 -16 -108 -37 -156 -37 -44 0 -80 -42 -88 -105 -5
-31 -17 -58 -36 -80 -16 -18 -39 -64 -51 -102 -33 -97 -45 -113 -89 -113 -41
0 -106 28 -139 59 -36 35 -58 100 -67 203 -2 27 -14 62 -45 133 -39 89 -43
115 -30 172 11 49 16 57 64 89 29 19 63 48 75 64 25 34 116 104 149 114 12 4
22 11 22 16 0 18 112 52 197 59 144 13 215 12 263 -5z m9225 -33 c69 -22 126
-74 145 -133 7 -23 18 -49 23 -55 5 -7 7 -13 3 -13 -7 0 22 -48 41 -68 7 -7
13 -21 13 -31 0 -10 3 -21 7 -25 18 -18 10 -73 -16 -111 -15 -22 -35 -61 -45
-88 -21 -56 -45 -73 -72 -52 -11 8 -42 14 -76 15 -31 0 -69 5 -85 11 -40 15
-179 16 -243 1 -31 -8 -69 -25 -89 -42 -28 -24 -33 -35 -33 -70 1 -22 6 -57
12 -76 18 -54 6 -82 -44 -105 -42 -18 -56 -34 -56 -65 0 -8 -10 -25 -22 -40
-26 -29 -36 -55 -37 -101 -1 -18 -14 -58 -30 -89 -31 -61 -34 -60 -61 10 -14
37 -19 40 -75 53 -169 36 -278 44 -351 24 -68 -19 -117 -113 -107 -203 3 -26
0 -55 -7 -67 -13 -24 -75 -55 -90 -46 -6 4 -10 -4 -10 -16 0 -12 -7 -31 -16
-40 -15 -17 -15 -20 0 -43 9 -14 16 -30 16 -36 0 -10 -6 -8 -58 19 -18 9 -23
9 -26 -1 -2 -7 -8 -26 -13 -43 -5 -16 -6 -46 -2 -65 6 -26 3 -40 -12 -58 -10
-14 -19 -33 -19 -43 0 -10 -5 -39 -12 -64 l-12 -46 -13 58 c-14 60 -21 93 -28
129 -4 19 -10 21 -47 17 -24 -3 -88 1 -143 7 -155 18 -232 23 -270 16 -38 -7
-85 -50 -85 -78 0 -9 -5 -20 -10 -23 -6 -4 -10 -21 -10 -38 0 -18 -3 -60 -6
-95 -6 -54 -10 -65 -36 -83 -24 -18 -35 -20 -66 -12 -58 14 -72 8 -62 -28 5
-17 7 -36 4 -44 -3 -7 1 -36 10 -64 9 -30 11 -53 5 -56 -5 -4 -9 0 -9 7 0 26
-25 47 -62 53 l-36 7 2 -79 c2 -65 0 -80 -15 -91 -11 -8 -19 -28 -21 -55 -4
-54 -18 -54 -38 1 -20 53 -36 68 -82 76 -31 6 -38 4 -38 -9 0 -8 -4 -15 -10
-15 -5 0 -10 6 -10 14 0 21 -7 24 -106 41 -195 33 -260 28 -306 -25 -24 -26
-28 -39 -28 -89 0 -91 -13 -109 -52 -74 -22 20 -24 3 -3 -37 18 -34 12 -56
-27 -92 l-28 -27 -35 20 c-19 11 -37 29 -40 39 -8 24 -57 60 -82 60 -26 0 -23
-64 5 -110 23 -37 29 -79 12 -96 -7 -7 -3 -19 15 -38 14 -15 25 -32 26 -39 0
-7 2 -21 4 -32 6 -29 -4 -55 -21 -55 -10 0 -14 12 -14 40 0 30 -5 42 -17 46
-10 3 -30 12 -45 20 -25 14 -28 13 -28 0 0 -9 5 -16 11 -16 12 0 1 -42 -14
-51 -5 -4 -7 -22 -5 -40 3 -22 -1 -43 -11 -58 -12 -18 -12 -26 -3 -29 7 -2 10
-7 7 -12 -3 -4 0 -41 5 -81 l10 -74 -37 -33 c-42 -37 -59 -25 -22 14 20 21 21
28 11 45 -7 10 -10 30 -6 44 4 16 0 35 -11 51 -9 14 -14 33 -11 41 4 9 1 22
-5 29 -6 7 -8 18 -4 24 12 19 -24 22 -72 6 -63 -22 -69 -21 -82 14 -10 31 -31
41 -31 15 0 -19 -16 -20 -27 -2 -11 18 -104 36 -193 38 -60 1 -86 -4 -131 -24
l-56 -25 -6 -69 c-4 -37 -7 -85 -7 -105 0 -39 -17 -60 -30 -37 -17 29 -50 62
-57 55 -4 -3 1 -31 11 -62 16 -51 16 -57 1 -80 -9 -14 -22 -27 -29 -30 -21 -8
-66 14 -75 38 -6 15 -27 30 -60 43 -62 23 -91 52 -94 90 -2 23 3 30 28 38 17
5 38 17 49 26 17 15 17 16 -10 21 -22 4 -30 11 -32 30 -6 50 -9 52 -51 28 -53
-30 -65 -18 -65 67 0 45 -4 66 -13 70 -11 4 -11 9 -3 25 6 12 9 29 5 39 -3 11
1 24 11 32 28 23 94 117 94 133 0 25 52 67 67 55 9 -8 21 -3 44 19 27 25 31
33 20 46 -10 12 -8 17 11 29 13 8 36 18 51 21 16 4 40 18 54 32 44 44 69 55
149 64 63 7 82 13 93 29 17 27 51 28 51 2 0 -20 4 -21 95 -36 22 -4 45 -10 50
-15 6 -4 42 -18 80 -30 74 -24 97 -37 156 -81 40 -31 89 -48 89 -30 0 6 9 11
20 11 11 0 20 4 20 9 0 5 16 16 35 25 44 21 37 36 -16 36 -26 0 -39 4 -39 14
0 25 -23 36 -44 20 -11 -8 -26 -14 -33 -14 -16 0 -40 47 -48 91 -3 19 -12 37
-20 41 -11 6 -8 18 12 60 14 29 35 67 47 83 12 17 28 46 36 65 20 51 79 120
102 120 16 0 19 5 14 25 -7 26 14 46 64 60 14 4 50 22 80 40 73 43 144 58 265
57 84 -1 119 -7 217 -37 64 -19 126 -35 137 -35 12 0 21 -6 21 -14 0 -15 70
-76 87 -76 5 0 19 10 31 23 l21 23 -23 25 c-12 14 -25 31 -27 38 -3 8 -17 15
-32 17 -15 1 -34 10 -43 18 -8 9 -19 16 -24 16 -16 0 -40 31 -40 52 0 11 33
80 74 153 40 73 79 149 86 169 14 44 34 58 120 86 36 12 76 27 90 35 85 46
277 61 399 32 88 -21 96 -17 106 58 6 49 42 122 82 162 6 7 15 37 18 66 5 36
15 61 34 82 32 37 163 103 291 147 89 30 103 32 211 30 130 -3 111 -14 160 92
12 27 30 57 39 66 20 20 38 53 70 126 17 39 29 53 54 62 18 7 41 21 51 32 10
11 25 20 34 20 9 0 34 9 56 20 22 11 45 20 52 20 7 0 13 4 13 10 0 5 12 13 28
16 15 4 29 10 32 13 3 4 32 14 65 23 73 21 236 15 320 -11z m-8374 -238 c34
-20 37 -46 9 -66 -36 -25 -100 6 -100 49 0 10 30 27 58 33 2 1 17 -7 33 -16z
m3631 -71 c22 -22 -31 -72 -77 -72 -19 0 -47 48 -40 70 3 10 14 20 23 22 22 5
82 -8 94 -20z m-3759 -97 c56 -14 167 -76 217 -120 14 -13 35 -28 47 -34 12
-6 48 -43 79 -82 l56 -71 0 -100 c0 -86 -3 -104 -21 -129 -21 -28 -28 -73 -13
-82 7 -5 19 -4 231 34 247 43 359 8 578 -182 35 -31 71 -69 78 -83 10 -18 14
-62 13 -136 0 -101 -2 -110 -19 -110 -11 0 -34 -15 -52 -34 -25 -26 -43 -35
-81 -40 -29 -3 -59 -15 -71 -26 -12 -11 -27 -20 -34 -20 -7 0 -26 -9 -42 -21
-36 -25 -38 -11 -4 21 37 35 32 50 -15 50 -23 0 -55 7 -72 16 -36 19 -159 31
-237 24 -49 -4 -54 -8 -57 -30 -2 -14 -9 -44 -15 -67 -6 -23 -9 -52 -6 -64 4
-16 -3 -30 -27 -53 -46 -44 -66 -80 -66 -118 0 -26 -8 -39 -34 -60 -42 -33
-58 -34 -129 -8 -41 15 -61 30 -83 63 -27 39 -29 49 -31 147 -1 78 -6 107 -16
115 -8 6 -25 32 -37 58 -12 26 -28 47 -35 47 -20 0 -22 18 -10 84 14 76 23 92
74 138 23 20 48 53 56 72 13 31 13 38 -5 78 -23 53 -30 60 -44 49 -6 -4 -25
-11 -43 -14 -43 -8 -60 12 -34 44 10 13 22 35 26 48 7 22 6 23 -33 16 -28 -4
-48 -2 -64 8 -25 16 -94 32 -176 42 -44 5 -59 2 -88 -15 -34 -22 -38 -31 -48
-103 -3 -25 -15 -48 -35 -66 -27 -25 -36 -46 -32 -73 1 -12 -51 -123 -66 -140
-36 -40 -149 -8 -197 55 -36 47 -56 126 -49 188 5 41 2 55 -19 86 -14 21 -29
50 -32 65 -3 15 -15 32 -26 38 -11 6 -20 19 -20 28 0 10 -4 22 -9 28 -5 5 -11
25 -15 45 -6 35 -4 38 60 90 83 68 89 73 144 138 25 29 77 76 115 105 69 51
71 53 145 55 41 1 102 6 135 10 93 13 126 12 188 -4z m937 -338 c19 -6 37 -12
39 -14 2 -1 -8 -18 -23 -38 -34 -44 -69 -47 -90 -7 -8 15 -23 36 -35 46 -11
10 -18 23 -15 28 7 11 70 4 124 -15z m1871 -26 c24 -19 24 -19 4 -41 -33 -37
-52 -42 -80 -24 -30 20 -44 62 -24 75 24 15 76 10 100 -10z m3693 -1 c33 -12
33 -33 1 -54 -28 -18 -58 -10 -69 20 -10 25 -7 32 12 37 28 8 30 7 56 -3z
m1928 -67 c10 -9 18 -29 18 -45 0 -23 -4 -28 -24 -28 -33 0 -45 19 -34 58 10
37 14 38 40 15z m-8422 -415 c0 -23 -3 -29 -11 -21 -6 6 -8 20 -4 32 9 30 15
26 15 -11z m1818 6 c38 -15 41 -33 10 -60 -45 -39 -72 -47 -110 -34 -37 14
-87 83 -67 96 40 25 103 24 167 -2z m3827 -46 c30 -14 34 -48 5 -48 -13 0 -22
-9 -26 -25 -5 -20 -12 -25 -39 -25 -39 0 -56 18 -58 62 -2 31 0 33 38 39 22 3
43 7 47 8 4 0 19 -4 33 -11z m-6655 0 c0 -2 -7 -24 -14 -50 -19 -62 -10 -68
88 -65 47 1 79 -2 84 -9 14 -22 105 -65 131 -62 39 4 51 -9 51 -56 0 -40 -4
-47 -49 -85 -42 -36 -50 -48 -56 -89 -4 -31 -16 -57 -33 -75 -15 -15 -45 -65
-67 -110 -39 -81 -41 -82 -80 -85 -49 -4 -104 11 -140 40 -31 24 -75 110 -75
148 0 14 -14 79 -31 145 -33 127 -37 195 -13 223 8 9 28 34 45 55 17 20 36 37
41 37 5 0 21 9 35 20 20 16 83 29 83 18z m9478 -36 c19 -15 25 -34 34 -96 11
-82 13 -70 -45 -208 -21 -49 -63 -51 -154 -6 -90 44 -92 80 -11 161 15 16 28
37 28 47 0 10 4 21 9 25 5 3 13 19 16 36 5 22 16 35 38 45 42 18 58 17 85 -4z
m-769 -36 c18 -39 4 -60 -41 -64 -47 -4 -75 26 -57 60 16 31 29 39 59 36 16
-2 30 -13 39 -32z m-7869 -316 c0 -5 -7 -10 -16 -10 -8 0 -12 5 -9 10 3 6 10
10 16 10 5 0 9 -4 9 -10z m2889 -64 c56 -29 57 -41 9 -85 -23 -23 -49 -41 -57
-41 -23 0 -77 38 -91 65 -10 19 -20 25 -36 22 -29 -5 -22 14 14 36 34 21 123
22 161 3z m5166 -66 c17 -33 20 -96 5 -105 -22 -14 -101 -10 -111 5 -17 26 -2
83 28 107 38 31 60 29 78 -7z m-3165 -23 c40 -20 36 -42 -14 -71 l-45 -26 -35
21 c-20 12 -36 23 -36 25 0 3 10 18 22 34 24 33 64 39 108 17z m-5229 -80 c-6
-15 -15 -27 -21 -27 -20 0 -22 29 -4 66 18 37 18 37 26 12 5 -15 4 -36 -1 -51z
m2979 63 c0 -5 -2 -10 -4 -10 -3 0 -8 5 -11 10 -3 6 -1 10 4 10 6 0 11 -4 11
-10z m-235 -20 c3 -5 -1 -10 -9 -10 -9 0 -16 5 -16 10 0 6 4 10 9 10 6 0 13
-4 16 -10z m6009 -25 c23 -34 20 -60 -8 -75 -51 -27 -79 11 -50 66 22 40 36
43 58 9z m-1399 -7 c32 -15 32 -41 -2 -68 -38 -30 -67 -23 -71 17 -2 23 3 35
20 47 27 19 21 19 53 4z m858 -4 c29 -5 41 -13 49 -33 10 -27 4 -135 -11 -174
-5 -12 -15 -42 -22 -66 -15 -52 -36 -62 -60 -32 -10 12 -22 22 -26 23 -4 0
-17 4 -28 8 -11 5 -47 14 -80 21 -54 11 -98 29 -132 52 -16 12 131 184 171
201 29 12 70 12 139 0z m-7987 -19 c14 -14 29 -25 34 -25 6 0 10 -4 10 -10 0
-5 9 -19 21 -31 19 -19 28 -20 85 -14 56 6 69 4 102 -16 57 -34 100 -41 140
-22 18 9 36 12 40 8 11 -10 8 -129 -3 -137 -5 -4 -21 -5 -35 -2 -15 3 -38 -3
-57 -15 -26 -16 -33 -30 -46 -86 -10 -44 -25 -77 -41 -94 -14 -15 -45 -65 -69
-111 -42 -81 -46 -85 -81 -88 -93 -8 -164 82 -187 239 -7 49 -19 92 -29 104
-34 40 -70 112 -70 141 0 43 19 103 38 122 28 28 86 62 105 62 10 0 29 -11 43
-25z m4532 -83 c2 -7 -4 -15 -13 -18 -20 -8 -27 -1 -19 20 7 18 25 17 32 -2z
m-3610 -299 c2 -8 -5 -13 -17 -13 -11 0 -32 -12 -46 -27 l-26 -28 7 27 c4 21
2 29 -10 34 -9 3 -16 10 -16 16 0 14 103 5 108 -9z m3282 5 c0 -20 -38 -78
-55 -84 -32 -13 -32 3 1 49 34 46 54 59 54 35z m-4840 -18 c6 -11 8 -26 4 -33
-4 -6 -4 -9 1 -5 5 5 16 -5 25 -20 14 -23 24 -28 65 -30 58 -2 81 -21 118 -95
25 -51 25 -54 13 -138 -6 -48 -17 -94 -24 -102 -7 -8 -30 -48 -51 -89 -42 -81
-68 -101 -121 -92 -40 6 -107 43 -131 70 -20 23 -46 103 -53 159 -2 22 -13 67
-24 100 -11 33 -22 74 -25 90 -6 34 24 137 41 143 7 2 12 10 12 17 0 17 65 44
107 44 23 1 36 -5 43 -19z m4639 5 c13 -2 28 -8 32 -12 15 -15 -10 -66 -47
-97 -35 -29 -36 -29 -70 -13 -19 10 -41 17 -48 17 -10 0 -13 13 -12 46 2 59
24 78 81 69 22 -3 51 -8 64 -10z m-499 -16 c13 -24 8 -34 -15 -26 -16 7 -21
47 -5 47 5 0 14 -9 20 -21z m1040 17 c0 -3 -4 -8 -10 -11 -5 -3 -10 -1 -10 4
0 6 5 11 10 11 6 0 10 -2 10 -4z m2834 -9 c9 -7 20 -31 23 -54 4 -33 1 -45
-16 -62 -27 -27 -63 -27 -97 2 -31 27 -28 50 16 96 31 34 47 38 74 18z m1189
-35 c36 -32 68 -134 47 -147 -5 -3 -7 -12 -4 -19 7 -17 -73 -186 -95 -203 -25
-19 -40 -15 -53 12 -6 15 -25 29 -47 36 -20 6 -40 15 -45 20 -6 5 -21 9 -35 9
-36 0 -92 21 -124 46 -28 22 -34 34 -18 34 17 0 158 145 180 185 19 36 26 41
69 46 60 8 102 1 125 -19z m-7867 -34 c37 -17 50 -19 65 -10 32 20 52 15 45
-10 -20 -73 -20 -72 0 -63 10 5 40 10 65 13 42 3 51 0 85 -30 63 -55 96 -72
149 -78 48 -5 50 -7 53 -37 2 -17 10 -37 18 -43 8 -7 14 -22 14 -34 -1 -21 -1
-21 -20 3 -28 33 -85 44 -124 24 -42 -21 -46 -29 -46 -94 0 -58 0 -57 -79
-161 -12 -14 -21 -35 -21 -45 0 -54 -77 -93 -148 -74 -94 26 -142 102 -142
227 0 74 -15 134 -32 134 -5 0 -8 7 -8 15 0 14 -18 20 -48 16 -10 -2 -13 14
-12 61 2 89 3 88 -25 88 -17 0 -25 5 -25 18 0 30 16 45 44 40 18 -4 39 4 73
28 27 18 54 33 61 33 7 1 33 -9 58 -21z m3034 6 c0 -8 -4 -12 -10 -9 -5 3 -10
10 -10 16 0 5 5 9 10 9 6 0 10 -7 10 -16z m3448 -46 c44 4 51 2 71 -24 24 -31
22 -70 -9 -114 -9 -14 -23 -54 -29 -90 -7 -36 -19 -78 -27 -95 -7 -16 -15 -45
-16 -62 -3 -43 -11 -42 -27 5 -25 72 -38 84 -80 77 -42 -7 -93 10 -126 42 -11
10 -28 22 -37 26 -37 14 -29 27 100 181 52 63 52 63 92 56 21 -4 61 -5 88 -2z
m607 -4 c23 -23 15 -48 -17 -52 -22 -3 -29 2 -34 22 -11 44 19 62 51 30z
m-1547 -50 c4 -27 -73 -93 -89 -77 -15 15 -14 70 1 88 20 25 84 16 88 -11z
m-2828 -38 c0 -3 -4 -8 -10 -11 -5 -3 -10 -1 -10 4 0 6 5 11 10 11 6 0 10 -2
10 -4z m-110 -51 c0 -15 -6 -25 -14 -25 -22 0 -30 19 -16 35 18 22 30 18 30
-10z m706 4 c9 -15 -11 -33 -30 -26 -9 4 -13 13 -10 22 7 17 30 20 40 4z
m-166 -9 c0 -12 -35 -31 -44 -23 -8 9 14 33 30 33 8 0 14 -4 14 -10z m2890
-54 c0 -2 3 -11 6 -20 4 -11 0 -14 -15 -11 -30 5 -42 15 -36 26 6 9 45 13 45
5z m-3670 -40 c0 -3 -4 -8 -10 -11 -5 -3 -10 -1 -10 4 0 6 5 11 10 11 6 0 10
-2 10 -4z m992 -85 c23 -6 44 -15 46 -21 6 -17 60 -41 97 -42 19 -1 40 -7 46
-15 6 -7 18 -13 26 -13 7 0 32 -18 55 -40 22 -22 52 -47 67 -54 46 -24 61 -49
57 -92 -3 -29 3 -49 22 -79 26 -40 35 -82 19 -92 -4 -2 1 -20 12 -39 25 -42
38 -109 23 -118 -7 -4 -13 8 -17 31 -8 50 -17 66 -41 69 -10 2 -32 6 -48 10
-27 6 -29 5 -24 -20 3 -14 0 -33 -7 -42 -8 -12 -9 -27 -1 -55 8 -32 7 -41 -6
-51 -23 -19 -33 -58 -15 -58 11 0 14 -11 10 -47 -6 -60 -10 -73 -23 -73 -5 0
-10 22 -10 49 0 28 -4 53 -10 56 -5 3 -10 17 -10 31 0 20 -5 24 -31 24 -17 0
-28 4 -24 10 3 6 14 10 25 10 18 0 34 23 23 34 -11 11 -36 6 -79 -14 -33 -16
-47 -18 -68 -10 -15 5 -43 10 -62 10 -27 0 -34 4 -34 19 0 10 7 21 15 25 43
16 0 22 -137 21 -197 -3 -220 -11 -241 -87 -10 -33 -13 -73 -10 -105 4 -43 2
-56 -16 -79 -11 -15 -21 -39 -21 -55 0 -22 -7 -32 -30 -44 -17 -9 -30 -11 -30
-5 0 5 -9 10 -20 10 -11 0 -20 7 -20 15 0 8 5 15 11 15 5 0 7 5 3 11 -4 7 -14
4 -28 -10 -18 -19 -19 -24 -7 -43 16 -25 23 -98 10 -98 -5 0 -9 4 -9 10 0 5
-3 9 -7 9 -20 -3 -34 2 -28 11 3 6 -1 10 -9 10 -9 0 -17 8 -17 18 -1 9 -4 4
-8 -13 -5 -22 -11 -29 -26 -27 -26 5 -63 38 -103 90 -33 44 -34 46 -27 116 4
39 11 76 15 81 5 6 5 26 1 45 -5 28 -12 36 -34 38 -29 4 -28 1 -29 107 0 67
-7 74 -36 39 -18 -22 -23 -24 -19 -9 21 76 46 124 81 160 23 22 59 62 80 88
22 27 52 55 68 63 15 8 28 20 28 27 0 7 14 21 30 30 17 10 30 27 30 37 0 25
46 60 81 60 15 0 31 5 34 10 3 6 15 10 25 10 10 0 31 10 46 23 25 22 37 24
160 25 74 1 153 -2 176 -7z m1695 -18 c5 -13 -13 -43 -26 -43 -4 0 -15 6 -25
13 -15 11 -16 17 -7 34 12 23 49 21 58 -4z m2222 -39 c25 -32 26 -56 5 -89
-13 -19 -25 -25 -54 -25 l-38 0 -4 -62 c-5 -70 -58 -218 -92 -256 l-20 -23
-15 26 c-9 14 -19 25 -24 25 -5 0 -36 11 -70 24 -34 13 -90 32 -124 42 -38 11
-63 24 -66 34 -3 10 15 32 47 59 28 23 74 72 102 107 l51 65 104 2 c85 2 104
5 105 17 1 43 25 72 66 79 4 0 16 -11 27 -25z m-6359 -34 c0 -5 -2 -10 -4 -10
-3 0 -8 5 -11 10 -3 6 -1 10 4 10 6 0 11 -4 11 -10z m168 -18 c59 -19 70 -39
19 -34 -45 4 -127 32 -127 43 0 14 49 10 108 -9z m2649 -4 c-3 -8 -6 -5 -6 6
-1 11 2 17 5 13 3 -3 4 -12 1 -19z m-3136 -31 c-8 -8 -11 -7 -11 4 0 20 13 34
18 19 3 -7 -1 -17 -7 -23z m5277 11 c20 -17 15 -95 -8 -118 -24 -24 -32 -25
-76 -4 -45 22 -46 60 -3 109 32 36 53 39 87 13z m-6479 -19 c15 -20 28 -28 39
-24 8 3 39 0 67 -6 57 -13 107 -51 149 -113 28 -42 31 -63 17 -110 -6 -17 -15
-57 -21 -88 -6 -31 -14 -58 -18 -60 -15 -7 -72 -83 -72 -97 0 -25 -62 -81 -89
-81 -118 0 -189 87 -210 256 -5 42 -14 80 -19 83 -26 17 -44 75 -38 124 9 61
39 104 91 128 56 26 78 24 104 -12z m6905 -31 c16 -25 9 -86 -14 -113 -20 -24
-59 -19 -70 10 -11 29 -3 55 22 73 10 7 18 22 18 33 0 26 26 24 44 -3z m-840
-19 c-3 -5 -10 -7 -15 -3 -5 3 -7 10 -3 15 3 5 10 7 15 3 5 -3 7 -10 3 -15z
m-4604 -10 c19 -7 36 -5 64 6 54 23 71 14 52 -24 -9 -16 -20 -31 -25 -33 -5
-1 -7 -25 -4 -52 6 -46 7 -47 19 -25 7 13 10 27 8 31 -3 5 0 8 7 8 7 0 27 11
45 25 47 36 66 32 99 -20 38 -61 79 -85 144 -85 91 0 79 -55 -14 -65 -27 -3
-56 -12 -64 -20 -19 -19 -41 -89 -41 -132 0 -19 -9 -42 -22 -56 -13 -14 -33
-37 -45 -51 -13 -14 -30 -26 -38 -26 -11 0 -15 -12 -15 -46 0 -37 -3 -45 -15
-40 -8 3 -15 2 -15 -3 0 -12 -47 -31 -78 -31 -38 0 -87 33 -117 79 -21 31 -28
58 -35 132 -10 100 -33 159 -63 159 -10 0 -16 4 -13 8 3 5 -3 22 -13 39 -32
52 -5 133 72 216 27 29 44 30 107 6z m1494 -5 c8 -29 -5 -50 -23 -40 -12 8
-15 49 -4 59 12 13 21 7 27 -19z m-859 -30 c9 -15 21 -40 26 -56 7 -28 6 -29
-19 -26 -26 3 -27 6 -27 56 0 28 1 52 1 52 1 0 9 -12 19 -26z m3055 -3 c0 -12
-20 -25 -27 -18 -7 7 6 27 18 27 5 0 9 -4 9 -9z m1045 -17 c36 -21 48 -23 65
-14 12 6 33 10 48 8 25 -3 27 -6 25 -48 -3 -64 -11 -90 -28 -90 -13 0 -20 -19
-16 -44 7 -39 0 -80 -24 -129 -18 -40 -26 -69 -23 -93 6 -49 -7 -42 -22 14
-18 64 -44 88 -104 94 -27 3 -52 11 -55 17 -4 6 -20 12 -37 14 -16 2 -34 6
-39 9 -6 3 -35 11 -65 18 -111 24 -113 28 -37 54 39 14 60 28 85 62 17 24 32
47 32 53 0 5 7 11 15 15 8 3 15 12 15 19 0 8 11 26 25 41 32 34 82 35 140 0z
m-1029 -56 c4 -6 -3 -20 -17 -32 -13 -12 -23 -28 -21 -37 3 -17 -42 -59 -63
-59 -7 0 -16 7 -19 16 -20 51 14 110 67 117 17 2 35 5 39 5 4 1 10 -3 14 -10z
m-718 -27 c3 -16 -1 -22 -10 -19 -7 3 -15 15 -16 27 -3 16 1 22 10 19 7 -3 15
-15 16 -27z m2822 -11 c0 -5 -4 -10 -10 -10 -5 0 -10 5 -10 10 0 6 5 10 10 10
6 0 10 -4 10 -10z m30 0 c0 -5 -4 -10 -10 -10 -5 0 -10 5 -10 10 0 6 5 10 10
10 6 0 10 -4 10 -10z m-946 -46 c4 -10 1 -14 -6 -12 -15 5 -23 28 -10 28 5 0
13 -7 16 -16z m-569 -56 c14 -6 25 -14 25 -17 0 -7 -75 -41 -90 -41 -14 0 -43
48 -35 60 8 14 68 13 100 -2z m-2816 -34 c-6 -8 -25 -14 -42 -14 l-30 0 23 25
c18 19 27 22 42 14 15 -8 17 -13 7 -25z m-3549 -6 c11 -12 20 -28 20 -35 0 -7
5 -13 10 -13 6 0 10 -6 10 -14 0 -9 18 -16 52 -20 40 -6 64 -16 97 -44 25 -20
54 -42 66 -47 29 -15 30 -57 1 -112 -14 -26 -26 -53 -26 -60 0 -30 -57 -130
-100 -174 -41 -43 -52 -49 -88 -49 -78 0 -135 41 -172 124 -12 27 -24 72 -27
100 -2 28 -9 65 -15 81 -22 63 -25 94 -17 154 14 99 43 129 126 130 31 1 48
-5 63 -21z m3580 -17 c0 -5 -7 -12 -16 -15 -22 -9 -24 -8 -24 9 0 8 9 15 20
15 11 0 20 -4 20 -9z m4115 -49 c17 -11 35 -60 35 -92 0 -39 -28 -54 -83 -45
-57 10 -57 10 -43 54 19 66 62 104 91 83z m396 -22 c15 -9 19 -21 19 -58 0
-26 1 -58 2 -72 3 -22 -1 -25 -33 -28 -29 -2 -37 1 -49 23 -10 18 -11 28 -3
33 6 4 10 26 10 48 0 62 13 75 54 54z m752 -5 c31 -13 36 -20 39 -52 4 -46
-24 -164 -46 -198 -20 -31 -32 -31 -98 -1 -70 31 -108 67 -108 103 0 32 70
144 97 155 30 11 79 9 116 -7z m-3909 -10 c3 -8 1 -15 -4 -15 -6 0 -10 7 -10
15 0 8 2 15 4 15 2 0 6 -7 10 -15z m-1854 -11 c0 -2 -7 -4 -15 -4 -8 0 -15 4
-15 10 0 5 7 7 15 4 8 -4 15 -8 15 -10z m163 -10 c44 -7 52 -34 10 -34 -39 0
-134 27 -147 41 -11 11 41 9 137 -7z m1973 -21 c1 -17 -4 -23 -21 -23 -26 0
-50 24 -40 40 4 6 19 10 33 8 20 -2 27 -9 28 -25z m-4136 7 c0 -5 -4 -10 -10
-10 -5 0 -10 5 -10 10 0 6 5 10 10 10 6 0 10 -4 10 -10z m2640 -9 c0 -11 -4
-22 -9 -25 -11 -7 -20 14 -13 32 7 19 22 14 22 -7z m1210 -1 c0 -11 -7 -20
-15 -20 -27 0 -18 30 13 39 1 1 2 -8 2 -19z m-3576 -50 c30 -17 57 -37 60 -45
4 -11 22 -15 65 -15 l60 0 51 -61 c55 -66 60 -86 31 -127 -12 -16 -22 -52 -25
-90 -7 -73 -15 -92 -53 -122 -14 -11 -34 -38 -44 -60 -40 -88 -166 -94 -228
-10 -32 44 -43 78 -46 147 -3 50 -9 71 -34 108 -41 61 -61 131 -51 184 8 46
29 74 75 102 42 27 77 24 139 -11z m2296 0 c0 -16 -4 -30 -10 -30 -5 0 -10 14
-10 30 0 17 5 30 10 30 6 0 10 -13 10 -30z m3765 10 c26 -29 76 -35 119 -15
20 10 38 16 39 14 1 -2 8 -15 15 -27 24 -42 24 -98 2 -144 -11 -24 -23 -61
-26 -83 -4 -35 -16 -84 -31 -135 -2 -8 -4 -17 -3 -19 2 -5 -23 -21 -32 -21 -4
0 -14 15 -22 33 -28 60 -26 59 -251 128 -50 15 -85 20 -122 16 -38 -4 -55 -2
-64 9 -14 17 -17 15 54 19 41 2 66 9 90 27 17 13 43 29 57 36 63 33 106 95 96
139 -4 13 -4 28 -1 33 11 17 61 11 80 -10z m-1180 -9 c7 -12 -12 -24 -25 -16
-11 7 -4 25 10 25 5 0 11 -4 15 -9z m-83 -13 c22 -18 40 -81 33 -111 -10 -38
-45 -52 -83 -33 -47 24 -49 49 -10 106 37 55 37 55 60 38z m509 -14 c15 -14
16 -18 3 -42 -10 -18 -13 -42 -9 -73 6 -42 4 -48 -21 -68 -51 -40 -102 -19
-89 38 3 16 13 35 21 42 10 8 12 22 8 44 -10 57 47 96 87 59z m-3700 -134 c15
0 31 -5 34 -11 5 -7 11 -5 18 4 14 17 82 29 115 21 24 -7 30 -24 8 -24 -8 0
-16 -7 -20 -15 -3 -8 -12 -15 -20 -15 -21 0 -28 -15 -20 -44 7 -30 24 -25 24
8 0 28 43 54 62 38 7 -5 30 -13 51 -17 31 -6 41 -15 58 -46 30 -60 57 -73 138
-65 l68 6 27 -59 c28 -62 31 -87 16 -111 -16 -25 -44 2 -51 49 -8 58 -15 63
-84 50 -99 -17 -127 -54 -118 -155 5 -55 3 -62 -26 -97 -16 -21 -33 -47 -36
-57 -3 -11 -11 -17 -18 -15 -7 2 -25 6 -41 10 -27 6 -28 4 -23 -22 6 -31 -7
-63 -26 -63 -7 0 -24 -6 -39 -14 -25 -13 -30 -12 -78 18 -40 25 -57 44 -76 87
-24 51 -25 58 -16 139 l10 85 -35 34 -36 35 -20 -25 -20 -24 6 48 c4 28 3 47
-3 47 -16 0 -11 41 9 85 25 56 109 141 124 126 6 -6 23 -11 38 -11z m1919 11
c0 -5 -9 -11 -20 -14 -22 -6 -28 8 -7 16 19 8 27 8 27 -2z m905 -21 c3 -6 3
-19 0 -30 -8 -24 -50 -27 -59 -4 -9 23 -8 24 17 34 30 12 35 12 42 0z m214
-85 c0 -60 -14 -73 -49 -48 -19 14 -21 21 -15 62 11 83 13 86 40 61 19 -18 24
-33 24 -75z m-2364 48 c10 -21 26 -55 36 -76 22 -46 35 -102 22 -94 -5 3 -18
24 -28 47 -12 26 -24 40 -37 40 -11 0 -28 5 -39 10 -20 11 -19 30 2 88 12 32
24 27 44 -15z m1024 11 c-15 -18 -39 -18 -39 0 0 16 19 25 38 18 9 -3 10 -8 1
-18z m181 7 c0 -5 -7 -11 -14 -14 -10 -4 -13 -1 -9 9 6 15 23 19 23 5z m329
-48 l19 -38 -25 -18 c-20 -15 -27 -16 -39 -6 -17 14 -13 61 7 86 16 18 16 18
38 -24z m698 -53 c13 -24 29 -51 36 -59 7 -10 12 -46 12 -91 0 -74 0 -75 -27
-78 -27 -3 -28 -1 -28 37 0 46 -3 47 -52 27 -42 -18 -70 -6 -50 21 21 31 34
67 24 71 -5 1 -18 9 -28 17 -15 11 -17 16 -6 26 6 7 12 21 12 31 0 10 7 21 15
24 8 3 17 15 20 26 6 17 9 18 28 5 12 -8 32 -34 44 -57z m-1228 15 c39 8 43
-15 6 -39 -14 -9 -25 -22 -25 -29 0 -7 -10 -24 -22 -37 -21 -22 -22 -22 -29
-4 -13 33 -10 79 7 103 12 16 19 19 24 11 5 -8 18 -10 39 -5z m-4149 -40 c0
-17 -22 -29 -41 -23 -8 3 -6 9 5 21 22 21 36 22 36 2z m235 -64 c28 -19 56
-41 63 -48 7 -7 23 -13 35 -13 29 0 62 -22 110 -74 51 -54 58 -73 41 -115 -8
-18 -14 -45 -14 -60 0 -36 -26 -84 -84 -156 -63 -77 -73 -84 -118 -85 -103 -1
-169 76 -192 221 -8 45 -23 92 -37 115 -20 32 -24 52 -24 114 0 86 10 103 83
130 54 21 72 17 137 -29z m4634 0 c18 -12 5 -47 -19 -54 -26 -7 -47 28 -29 49
13 16 28 18 48 5z m831 -26 c13 -16 6 -35 -14 -35 -22 0 -37 25 -24 38 16 16
23 15 38 -3z m1206 -62 c19 -45 5 -93 -42 -140 -58 -57 -103 -41 -109 40 -1
25 -6 50 -9 56 -12 19 13 77 37 89 56 27 100 11 123 -45z m-479 21 c29 -8 58
-59 61 -105 2 -35 1 -36 -45 -47 -41 -9 -53 -8 -85 7 -23 11 -34 13 -31 5 2
-6 0 -15 -6 -19 -7 -4 -6 -17 4 -42 19 -44 19 -61 1 -79 -17 -16 -36 -19 -36
-4 0 19 -15 10 -27 -17 -7 -15 -13 -55 -13 -89 0 -35 -4 -66 -10 -69 -5 -3
-10 -19 -10 -36 0 -16 -5 -29 -11 -29 -6 0 -9 -12 -7 -27 5 -43 -17 -37 -42
12 -13 24 -31 47 -41 50 -11 4 -19 11 -19 16 0 5 -11 9 -25 9 -15 0 -38 6 -53
14 -15 7 -45 17 -67 21 -39 6 -141 54 -119 55 6 0 23 18 38 40 15 23 31 38 36
35 5 -3 30 13 55 36 46 42 56 74 33 98 -11 10 -8 16 11 32 29 23 74 25 92 2 8
-9 27 -22 44 -29 28 -12 32 -11 51 14 17 21 30 26 65 27 l43 0 2 39 c2 62 50
96 111 80z m-1851 -29 c10 -41 -1 -56 -32 -45 -15 6 -36 8 -47 4 -17 -5 -16
-2 8 30 32 42 62 47 71 11z m-2710 -50 c18 -14 16 -15 -25 -13 -25 2 -46 9
-49 16 -5 17 50 16 74 -3z m-143 -36 l49 1 -7 -40 c-4 -22 -3 -40 2 -40 4 1
28 5 52 9 45 9 45 9 90 -40 25 -27 61 -60 79 -73 29 -21 38 -23 65 -14 23 9
32 8 35 -1 2 -6 16 -18 31 -25 15 -8 33 -26 41 -40 12 -23 12 -29 -1 -41 -13
-13 -17 -13 -37 1 -12 8 -22 21 -21 27 3 26 -2 33 -23 35 -114 9 -129 -4 -138
-121 -7 -94 -25 -128 -74 -143 -17 -5 -37 -22 -46 -39 -23 -41 -86 -74 -129
-68 -41 7 -105 69 -122 120 -7 22 -10 65 -6 108 l5 73 -39 36 c-21 21 -44 55
-50 76 -10 34 -9 46 11 96 19 45 33 63 69 86 37 24 53 28 81 23 19 -4 57 -6
83 -6z m1574 -16 c-9 -9 -19 -14 -23 -11 -10 10 6 28 24 28 15 0 15 -1 -1 -17z
m2667 -14 c-3 -5 -10 -7 -15 -3 -5 3 -7 10 -3 15 3 5 10 7 15 3 5 -3 7 -10 3
-15z m-2538 -23 c10 -8 15 -18 11 -22 -4 -4 -17 2 -29 14 -25 25 -13 30 18 8z
m2000 -9 c-5 -49 -32 -63 -42 -23 -7 31 1 46 26 46 13 0 18 -6 16 -23z m-632
4 c10 -16 -5 -41 -25 -41 -23 0 -45 36 -26 43 20 9 45 8 51 -2z m-1594 -30 c0
-11 -7 -26 -15 -35 -10 -10 -15 -35 -15 -74 0 -71 -26 -115 -57 -96 -20 13
-35 68 -27 103 3 13 15 38 28 55 13 17 26 39 29 49 9 25 57 23 57 -2z m1487
-3 c11 -13 23 -42 26 -65 4 -35 1 -44 -19 -62 -23 -20 -27 -20 -53 -7 -40 21
-46 44 -21 78 11 15 21 39 22 53 3 31 18 32 45 3z m-5050 -3 c12 -8 24 -28 28
-44 6 -30 46 -53 111 -66 35 -7 110 -74 124 -111 14 -35 2 -114 -27 -174 -32
-68 -102 -137 -148 -146 -40 -7 -125 18 -147 44 -32 37 -63 110 -77 180 -6 30
-16 63 -22 74 -19 34 -20 128 -3 181 12 37 23 51 47 62 43 18 88 18 114 0z
m5591 -21 c23 -16 29 -43 12 -60 -8 -8 -7 -19 0 -36 11 -23 8 -29 -34 -72 -53
-55 -76 -56 -90 -7 -9 31 -7 36 24 64 29 26 31 31 17 39 -23 12 -22 64 1 77
24 15 44 13 70 -5z m-1688 -34 c12 -8 11 -10 -7 -10 -12 0 -25 5 -28 10 -8 13
15 13 35 0z m4595 -5 c17 -3 47 -21 68 -40 30 -27 37 -42 38 -72 3 -104 -10
-141 -70 -200 -40 -39 -44 -41 -74 -30 -96 33 -189 121 -180 170 3 15 9 24 14
21 5 -3 9 -1 9 5 0 6 12 35 26 65 20 43 34 59 67 75 23 11 49 18 57 16 8 -2
29 -6 45 -10z m-4427 -28 c76 -23 100 -45 41 -38 -84 11 -91 9 -116 -38 -12
-24 -23 -40 -24 -35 0 5 -5 -4 -10 -21 -4 -16 -5 -33 -1 -37 10 -10 74 15 92
36 7 9 16 16 20 16 9 0 40 -57 40 -73 0 -17 80 -87 99 -87 11 0 23 -4 26 -10
3 -5 0 -10 -7 -10 -7 0 -34 -13 -59 -29 -43 -27 -47 -33 -54 -83 -4 -29 -7
-71 -7 -92 1 -24 -5 -47 -14 -57 -10 -11 -13 -25 -9 -38 4 -12 2 -21 -4 -21
-6 0 -16 -11 -23 -25 l-13 -25 -28 26 c-16 14 -35 23 -43 20 -17 -6 -17 -16
-4 -51 8 -20 6 -29 -10 -45 -17 -17 -24 -18 -41 -10 -15 8 -24 8 -34 0 -27
-22 -77 23 -120 109 -27 55 -29 76 -9 183 5 33 4 38 -18 43 -20 5 -25 16 -35
68 -6 34 -9 76 -7 92 l6 30 -21 -25 c-12 -16 -16 -27 -9 -31 15 -9 1 -94 -17
-109 -8 -7 -15 -11 -16 -9 -2 8 -10 85 -11 104 -1 41 24 106 58 151 20 26 43
62 50 81 19 44 38 43 31 -2 -5 -28 -3 -35 11 -35 9 0 26 7 36 15 28 21 54 19
61 -5 5 -16 10 -18 25 -10 10 6 30 10 43 10 16 0 28 8 35 25 15 33 15 35 -2
35 -7 0 -19 7 -26 15 -11 13 -8 15 16 15 16 0 62 -10 102 -23z m842 -67 c0 -5
-4 -10 -10 -10 -5 0 -10 5 -10 10 0 6 5 10 10 10 6 0 10 -4 10 -10z m1216 -5
c16 -13 17 -16 4 -25 -26 -17 -70 -12 -70 8 0 35 32 43 66 17z m1305 -12 c7
-66 -6 -98 -35 -87 -19 7 -29 63 -15 80 12 15 48 19 50 7z m-6089 -119 c23
-20 46 -41 49 -46 4 -6 11 -2 18 8 6 11 11 14 11 7 0 -7 19 -21 43 -31 44 -20
147 -121 147 -144 0 -8 -4 -18 -8 -23 -9 -12 -28 -67 -37 -113 -4 -18 -21 -52
-38 -75 -18 -23 -39 -53 -48 -67 -9 -14 -37 -36 -63 -49 -61 -30 -104 -23
-156 27 -48 47 -70 99 -70 170 0 42 -5 62 -24 86 -80 106 -74 211 16 266 53
32 108 27 160 -16z m3149 -44 c35 5 42 -1 16 -15 -15 -8 -34 -12 -42 -8 -17 6
-17 6 -9 28 5 12 9 13 14 5 4 -6 13 -11 21 -10z m2673 0 c52 0 102 -45 117
-103 15 -65 7 -117 -28 -172 -31 -50 -35 -52 -56 -30 -9 8 -39 24 -69 35 -67
25 -128 78 -128 111 0 13 7 35 14 49 8 14 22 40 32 58 19 38 53 65 72 57 8 -3
28 -5 46 -5z m-729 -61 c19 -35 19 -59 0 -83 -8 -11 -15 -31 -15 -45 0 -32
-37 -71 -66 -71 -26 0 -64 36 -64 59 0 9 4 22 9 30 6 9 3 26 -7 47 -20 43 -5
79 40 98 41 18 84 4 103 -35z m-1781 -10 c3 -17 2 -38 -4 -47 -8 -15 -9 -15
-10 3 -1 20 -1 20 -15 1 -12 -15 -18 -17 -27 -8 -9 9 -7 13 5 18 9 3 17 11 17
16 0 6 -6 5 -15 -2 -19 -16 -45 -6 -45 18 0 27 8 32 50 32 34 0 38 -3 44 -31z
m476 6 c16 -20 8 -29 -41 -45 -40 -13 -42 -13 -60 9 -25 31 -12 45 44 49 29 1
49 -3 57 -13z m-2501 -70 c-25 -60 -43 -67 -45 -16 -1 24 6 40 29 63 40 39 45
23 16 -47z m3304 57 c27 -29 46 -85 36 -103 -7 -14 -39 -29 -74 -34 -20 -3
-45 16 -60 45 -20 39 -19 45 15 80 33 34 60 38 83 12z m-1383 4 c0 -2 -7 -6
-15 -10 -8 -3 -15 -1 -15 4 0 6 7 10 15 10 8 0 15 -2 15 -4z m-1418 -123 c32
-10 58 -22 58 -26 0 -5 -31 -6 -68 -4 l-68 6 -14 -32 c-7 -18 -21 -38 -29 -45
-13 -11 -6 -12 46 -7 55 6 63 5 80 -15 10 -12 43 -47 73 -76 l54 -55 -42 -38
c-42 -38 -42 -39 -44 -112 0 -41 -2 -79 -2 -85 -1 -9 -27 -36 -72 -73 -6 -5
-19 -9 -29 -8 -10 1 -25 -12 -36 -32 -10 -19 -26 -36 -36 -38 -83 -15 -113 -7
-157 40 -36 39 -48 87 -44 178 3 73 1 83 -17 93 -11 6 -22 14 -25 17 -3 3 -12
8 -21 11 -11 4 -19 24 -23 61 -6 45 -3 63 17 108 31 68 92 133 115 124 9 -4
26 -10 37 -13 11 -2 27 -11 36 -19 12 -10 23 -11 40 -4 13 5 36 12 51 15 20 5
25 10 21 26 -7 26 21 27 99 3z m2601 -17 c9 -7 22 -29 28 -47 7 -19 25 -47 42
-62 22 -21 27 -31 19 -39 -12 -12 -65 -16 -92 -8 -16 5 -18 -12 -36 -248 -6
-83 -9 -94 -28 -102 -29 -11 -36 -4 -36 35 0 18 -12 61 -26 94 -25 57 -28 60
-55 54 -19 -3 -42 2 -69 16 -22 11 -51 21 -63 21 -36 0 -77 40 -84 84 l-6 38
39 -6 c39 -7 40 -7 63 39 27 54 23 71 -19 80 -20 4 -30 12 -28 22 2 12 21 16
83 18 72 2 85 0 132 -27 l52 -29 12 23 c14 27 40 58 48 58 3 0 14 -7 24 -14z
m-1193 -6 c0 -5 -5 -10 -11 -10 -5 0 -7 5 -4 10 3 6 8 10 11 10 2 0 4 -4 4
-10z m-3889 -30 c10 -6 19 -16 19 -23 0 -15 54 -49 63 -41 12 12 115 -48 143
-84 16 -20 38 -45 48 -56 16 -16 17 -22 7 -39 -7 -11 -20 -43 -28 -71 -23 -81
-38 -108 -95 -166 -74 -77 -97 -87 -156 -72 -66 17 -115 75 -136 158 -9 35
-16 72 -16 83 0 11 -9 35 -20 53 -22 38 -29 145 -12 188 25 63 124 101 183 70z
m7221 -32 c46 -49 49 -112 13 -220 -22 -66 -65 -125 -84 -116 -3 2 -32 17 -65
32 -70 35 -122 82 -131 119 -6 21 1 44 24 91 33 67 52 89 91 105 33 14 136 7
152 -11z m-3323 -46 c29 -24 33 -33 27 -55 -4 -18 -13 -27 -26 -27 -11 0 -20
-4 -20 -10 0 -5 6 -9 12 -7 7 1 14 -8 16 -20 2 -13 -2 -23 -8 -23 -6 0 -20
-21 -30 -46 -24 -55 -42 -53 -53 6 -7 36 -5 47 13 72 22 29 20 48 -6 48 -19 0
-18 26 3 61 21 36 30 36 72 1z m442 -25 c-8 -8 -11 -4 -11 14 0 33 14 47 18
19 2 -12 -1 -27 -7 -33z m-245 -4 c-11 -11 -19 6 -11 24 8 17 8 17 12 0 3 -10
2 -21 -1 -24z m2329 -3 c3 -5 -1 -10 -9 -10 -21 0 -20 -9 4 -45 28 -42 26 -81
-6 -110 -21 -20 -30 -22 -46 -14 -23 12 -38 49 -38 94 0 57 72 122 95 85z
m-3475 -39 c0 -5 2 -24 5 -42 l5 -34 -14 35 c-18 43 -19 50 -6 50 6 0 10 -4
10 -9z m3075 -16 c45 -44 27 -101 -36 -111 -29 -5 -41 -2 -58 15 -31 31 -26
91 9 108 37 19 58 16 85 -12z m-6537 -72 c13 -15 31 -38 42 -50 12 -15 30 -23
51 -23 40 0 86 -30 119 -79 19 -29 24 -48 24 -96 0 -33 -3 -70 -6 -83 -15 -52
-94 -132 -151 -153 -34 -12 -41 -11 -92 14 -30 14 -62 39 -72 53 -18 29 -63
158 -63 184 0 9 -9 33 -19 53 -19 38 -21 104 -3 116 5 3 13 17 17 31 4 14 19
35 34 48 35 30 87 24 119 -15z m1712 28 c0 -12 -20 -25 -27 -18 -7 7 6 27 18
27 5 0 9 -4 9 -9z m3316 -2 c10 -17 -13 -36 -27 -22 -12 12 -4 33 11 33 5 0
12 -5 16 -11z m-3030 -74 c27 -19 51 -43 55 -52 4 -14 15 -17 47 -14 39 2 45
-1 93 -51 55 -57 75 -93 61 -112 -15 -20 -32 -92 -32 -135 0 -55 -13 -77 -58
-100 -20 -10 -46 -29 -57 -41 -24 -28 -75 -50 -112 -50 -15 0 -44 12 -65 26
-46 33 -78 109 -78 190 0 48 -4 59 -25 76 -38 30 -58 77 -56 131 2 57 10 74
58 128 48 53 98 54 169 4z m3012 -36 c-2 -6 -8 -10 -13 -10 -5 0 -11 4 -13 10
-2 6 4 11 13 11 9 0 15 -5 13 -11z m3191 -12 c59 -21 104 -135 66 -167 -8 -7
-15 -21 -15 -30 0 -19 -69 -80 -89 -80 -6 0 -11 -4 -11 -9 0 -5 -9 -13 -20
-16 -11 -4 -20 -12 -19 -18 3 -29 -3 -46 -26 -71 -30 -33 -36 -33 -56 3 -21
37 -10 108 21 133 l21 17 -28 42 c-30 46 -35 93 -12 136 33 64 94 86 168 60z
m-1904 -32 c37 -34 37 -35 33 -102 -2 -38 -11 -83 -21 -102 -9 -19 -17 -43
-17 -53 0 -11 -5 -16 -10 -13 -6 4 -8 10 -5 15 7 11 -19 18 -67 19 -20 0 -66
14 -102 31 -73 35 -81 52 -42 91 13 13 40 49 59 81 40 62 46 66 99 67 29 1 45
-6 73 -34z m-1349 -62 c9 -33 -8 -48 -35 -34 -23 13 -28 40 -10 58 16 16 38 5
45 -24z m-3949 -41 c3 -24 0 -32 -12 -32 -12 0 -15 9 -13 35 3 43 20 41 25 -3z
m4343 28 c33 -18 45 -79 26 -142 -19 -67 -43 -92 -80 -82 -38 9 -56 48 -43 91
8 24 7 39 -2 57 -21 39 10 86 57 86 13 0 32 -5 42 -10z m-460 -42 c29 -48 4
-118 -42 -118 -13 0 -18 -7 -18 -25 0 -18 -5 -25 -20 -25 -15 0 -20 7 -20 25
0 14 5 25 12 25 7 0 5 6 -4 18 -31 35 -31 58 3 96 39 45 63 46 89 4z m2630
-17 c0 -33 -16 -49 -33 -32 -8 8 -7 18 3 36 18 33 30 32 30 -4z m-6230 -74
c16 -17 30 -35 30 -39 0 -11 47 -29 88 -33 30 -3 67 -25 84 -50 3 -5 16 -21
27 -34 23 -26 27 -89 12 -170 -8 -38 -21 -56 -90 -123 -74 -71 -84 -78 -121
-78 -43 0 -53 5 -105 59 -32 33 -42 64 -50 152 -3 35 -48 134 -66 145 -13 8
-11 89 3 121 16 34 32 49 81 72 47 22 68 18 107 -22z m3674 -13 c8 -21 -1 -34
-25 -34 -14 0 -19 7 -19 25 0 29 34 36 44 9z m-1581 -16 c7 -25 3 -33 -12 -23
-13 8 -15 45 -2 45 5 0 11 -10 14 -22z m3603 -4 c26 -11 32 -21 43 -67 10 -46
9 -66 -5 -128 -9 -41 -27 -91 -41 -112 -23 -37 -25 -38 -46 -23 -12 9 -42 28
-67 42 -89 53 -110 69 -124 98 -15 31 -10 51 27 109 9 15 24 39 33 53 31 51
99 62 180 28z m-2300 -39 c11 -18 14 -35 9 -65 l-7 -40 31 17 c28 16 33 16 41
3 20 -30 7 -45 -40 -46 -25 0 -58 -4 -73 -9 -27 -7 -28 -9 -28 -74 1 -158 -7
-253 -25 -272 -9 -10 -20 -19 -24 -19 -3 0 -7 32 -8 70 -2 99 -23 125 -106
134 -33 4 -77 7 -97 6 -28 0 -38 5 -49 26 -8 14 -27 32 -42 40 -35 18 -51 49
-43 81 4 19 10 24 25 19 11 -3 29 -9 39 -12 14 -4 26 5 50 39 17 25 31 49 31
52 0 4 -10 15 -22 24 l-22 18 25 16 c13 9 42 19 65 22 38 7 41 5 65 -29 13
-20 29 -34 35 -32 6 3 16 0 21 -5 12 -12 43 -1 43 14 0 6 12 23 26 39 30 31
52 26 80 -17z m-724 9 c32 -11 58 -23 58 -27 0 -9 -16 -6 -97 20 -29 10 -53
21 -53 26 0 10 6 9 92 -19z m348 -9 c0 -15 -46 -32 -57 -22 -3 4 -3 13 0 22 8
20 57 20 57 0z m-442 -5 c2 0 -8 -14 -22 -31 -26 -31 -33 -82 -17 -122 6 -16
12 -13 46 22 22 22 52 43 68 46 24 6 29 4 38 -23 6 -17 28 -42 50 -56 44 -29
48 -43 20 -72 -39 -42 -47 -76 -50 -195 -1 -33 -8 -55 -28 -82 -32 -41 -54
-41 -90 2 l-23 26 0 -41 c0 -50 -10 -59 -72 -67 -41 -6 -51 -3 -79 20 -18 15
-42 50 -55 79 -21 47 -22 57 -12 121 l11 71 -35 35 c-26 25 -39 32 -47 24 -10
-10 -11 -9 -25 37 -3 8 4 22 15 32 20 18 26 54 9 54 -21 0 -9 43 19 71 21 21
39 29 64 29 19 0 40 6 46 14 9 11 31 13 89 10 42 -2 79 -4 80 -4z m2452 -51
c0 -11 -4 -17 -10 -14 -5 3 -10 15 -10 26 0 11 5 17 10 14 6 -3 10 -15 10 -26z
m-148 -26 c25 -30 40 -80 33 -110 -8 -37 -22 -54 -65 -80 l-36 -22 -28 23
c-26 20 -29 30 -33 92 -4 60 -2 72 17 92 26 28 90 31 112 5z m-452 -69 c28
-48 23 -86 -12 -98 -32 -11 -97 16 -100 42 -5 56 19 92 63 92 21 0 32 -9 49
-36z m-5101 -15 c11 -12 25 -34 31 -49 13 -30 69 -54 107 -44 17 5 33 -4 68
-39 53 -53 65 -81 65 -149 0 -49 -29 -118 -50 -118 -5 0 -28 -18 -52 -41 -47
-45 -75 -59 -116 -59 -69 0 -143 87 -162 187 -6 34 -18 85 -26 113 -24 82 -3
179 45 205 37 20 67 18 90 -6z m2805 -45 c9 -36 -5 -48 -37 -33 -15 7 -27 15
-27 18 1 17 26 37 51 40 4 1 10 -11 13 -25z m4107 -14 c27 -15 49 -63 49 -106
0 -36 -14 -60 -68 -122 -31 -35 -75 -27 -119 21 -32 36 -35 44 -30 84 5 47 48
119 75 126 32 9 73 7 93 -3z m-4712 -45 c16 -8 31 -21 34 -28 9 -25 83 -56
119 -51 31 4 36 0 86 -67 l54 -72 -11 -80 c-6 -44 -11 -98 -11 -120 0 -45 -32
-97 -60 -97 -10 0 -42 -14 -70 -32 -38 -24 -64 -32 -107 -34 -54 -2 -58 -1
-85 33 -38 49 -50 101 -42 182 6 64 5 68 -18 83 -48 32 -58 48 -58 96 0 63 33
126 88 167 24 19 47 35 49 35 2 0 17 -7 32 -15z m3999 -43 c7 -5 10 -16 6 -26
-4 -9 0 -24 8 -34 22 -24 28 -70 12 -83 -8 -6 -14 -18 -14 -25 0 -8 -12 -19
-27 -25 -34 -13 -65 0 -89 36 -23 35 -12 123 19 147 23 19 64 23 85 10z
m-2420 -138 c29 -14 39 -32 32 -59 -1 -5 -4 -32 -6 -60 -6 -77 -44 -145 -79
-145 -19 0 -46 72 -43 115 1 22 -1 49 -5 61 -5 15 1 32 23 62 34 47 35 48 78
26z m-2337 -73 c15 -16 31 -36 35 -44 8 -13 25 -17 106 -26 9 -1 56 -49 86
-87 21 -27 22 -35 16 -124 -8 -118 -14 -133 -61 -163 -132 -83 -201 -97 -253
-49 -37 33 -70 120 -70 185 0 40 -5 54 -30 80 -45 47 -53 89 -30 149 43 112
138 150 201 79z m5394 19 c30 -11 41 -33 29 -57 -9 -21 -11 -30 -13 -59 -1
-23 -43 -58 -83 -67 -22 -6 -30 -2 -48 23 -29 40 -20 102 20 142 30 30 53 34
95 18z m-4140 -70 c3 -5 -1 -10 -10 -10 -9 0 -13 5 -10 10 3 6 8 10 10 10 2 0
7 -4 10 -10z m2868 -4 c70 -24 91 -90 67 -217 -14 -77 -29 -109 -51 -109 -11
0 -19 5 -19 10 0 6 -42 30 -93 55 -107 52 -135 84 -116 131 5 16 14 31 18 34
5 3 18 20 29 39 39 64 92 83 165 57z m-4839 -129 c10 -8 28 -34 40 -58 20 -42
23 -44 69 -47 63 -3 101 -24 132 -71 33 -49 40 -94 26 -162 -10 -44 -20 -61
-55 -91 -71 -61 -120 -82 -174 -74 -38 5 -53 13 -78 42 -30 35 -54 101 -54
149 0 14 -15 56 -34 93 -32 62 -34 71 -27 126 6 47 13 64 35 82 31 27 91 32
120 11z m3956 -96 c0 -99 -40 -143 -101 -111 -26 14 -25 69 1 103 11 14 20 30
20 35 0 13 41 41 63 41 15 1 17 -9 17 -68z m-462 -19 c3 -33 -1 -43 -18 -52
-27 -14 -54 -5 -69 24 -18 33 -10 69 19 83 37 18 64 -3 68 -55z m-1410 -19
c-3 -70 -14 -85 -43 -57 -19 20 -15 63 10 101 27 40 36 27 33 -44z m-837 -73
c31 -41 20 -162 -14 -168 -22 -4 -77 19 -77 33 0 5 -14 23 -30 39 -17 16 -30
39 -30 50 1 68 111 102 151 46z m1171 -31 c15 -10 30 -19 33 -19 10 0 43 -38
38 -44 -4 -3 -1 -6 5 -6 7 0 12 -9 12 -20 0 -11 7 -20 15 -20 14 0 41 38 37
53 -3 12 27 8 58 -8 28 -14 32 -24 30 -70 0 -3 6 -18 14 -33 20 -39 -1 -271
-27 -300 -9 -10 -17 -24 -17 -30 0 -15 0 -15 -42 3 -35 14 -35 14 -67 -22 -28
-32 -37 -36 -85 -37 -44 -1 -59 3 -79 22 -32 30 -49 91 -47 166 3 85 4 82 -39
129 -21 23 -41 54 -45 69 -11 47 13 129 49 165 31 31 36 32 81 27 27 -3 61
-15 76 -25z m2311 10 c56 -30 69 -78 41 -148 -14 -35 -20 -40 -60 -46 -76 -11
-114 29 -114 118 0 72 67 111 133 76z m-453 -73 c0 -8 -4 -17 -9 -20 -5 -3 -7
-15 -4 -26 6 -23 -5 -26 -31 -7 -26 19 -12 67 20 67 14 0 24 -6 24 -14z
m-1102 -39 c4 -36 -17 -43 -65 -21 -50 23 -49 22 -27 39 10 8 35 14 54 12 30
-2 35 -6 38 -30z m2249 -63 c34 -26 40 -42 24 -72 -5 -9 -12 -24 -15 -33 -2
-9 -20 -28 -38 -42 -84 -63 -172 33 -119 131 26 49 95 57 148 16z m-3921 -54
c33 -13 84 -64 84 -85 0 -16 15 -19 67 -16 25 2 41 -6 78 -40 26 -24 51 -51
56 -61 6 -11 4 -58 -5 -135 -16 -132 -19 -137 -110 -167 -28 -10 -65 -24 -83
-32 -99 -44 -158 10 -173 163 -8 77 -12 91 -35 108 -50 41 -57 117 -19 194 35
70 81 93 140 71z m2561 -32 c8 20 25 14 18 -7 -3 -11 -1 -22 4 -25 6 -4 8 -13
6 -21 -3 -8 -7 -22 -10 -32 -3 -9 -7 -71 -8 -137 l-2 -121 -27 -3 c-19 -2 -28
1 -28 11 0 22 -76 63 -142 76 -31 7 -62 19 -68 27 -7 7 -18 14 -25 14 -19 0
-47 48 -43 73 2 17 12 23 41 28 43 7 39 4 61 46 23 47 68 67 132 60 43 -4 54
-2 59 11 5 14 7 14 16 2 8 -11 12 -12 16 -2z m-257 -42 c0 -11 -19 -15 -25 -6
-3 5 1 10 9 10 9 0 16 -2 16 -4z m-3055 -86 c12 -12 30 -38 40 -59 17 -38 18
-39 81 -43 59 -4 67 -7 94 -38 32 -39 45 -94 43 -180 -2 -67 -17 -80 -161
-149 -52 -25 -67 -28 -90 -20 -58 22 -93 81 -107 176 -4 29 -17 65 -30 84 -35
47 -51 128 -36 179 22 76 111 102 166 50z m2300 -70 c19 -37 19 -57 -1 -134
-18 -70 -31 -84 -74 -78 -36 5 -43 19 -60 110 -10 55 -9 67 5 88 18 28 47 42
87 43 21 1 31 -6 43 -29z m874 -216 c20 -24 22 -34 17 -77 -14 -101 -55 -136
-122 -103 -40 19 -54 49 -54 117 0 40 5 55 26 76 22 22 32 25 67 20 29 -4 49
-14 66 -33z m-480 -46 c12 -33 2 -55 -27 -63 -21 -5 -31 -1 -50 20 -22 26 -22
28 -6 46 24 27 72 25 83 -3z m-2149 -79 c0 -34 -23 -43 -59 -24 -45 23 -54 61
-18 74 33 13 77 -16 77 -50z m3353 -6 c10 -13 14 -34 13 -71 -2 -44 -7 -58
-33 -84 -32 -32 -59 -34 -95 -6 -29 23 -28 124 2 156 26 28 90 30 113 5z
m-2248 -69 c19 -8 65 -106 65 -140 0 -20 5 -24 31 -24 16 0 28 4 25 9 -3 4 13
14 35 21 l41 14 34 -40 34 -39 -4 -121 c-4 -143 -17 -174 -71 -174 -18 0 -54
-9 -80 -20 -46 -20 -121 -26 -140 -12 -5 4 -21 22 -34 41 -19 27 -24 49 -27
113 -4 82 -8 92 -66 146 -39 36 -13 133 53 194 39 37 68 45 104 32z m819 -20
c23 -9 20 -23 -11 -50 -31 -27 -43 -30 -43 -12 0 6 -2 9 -5 7 -2 -3 2 -27 11
-54 18 -60 21 -236 4 -235 -3 1 -21 14 -40 30 -19 17 -40 30 -47 30 -7 0 -29
9 -49 19 -20 11 -42 17 -50 14 -8 -3 -14 0 -14 6 0 6 -6 11 -14 11 -8 0 -22 7
-30 16 -9 8 -20 13 -25 10 -5 -3 -19 2 -32 12 -33 28 -19 54 27 50 33 -3 40 1
68 42 48 68 121 95 160 59 5 -4 20 5 35 22 27 31 31 32 55 23z m-1669 -178
c17 -18 36 -49 41 -67 9 -33 10 -33 65 -30 48 2 60 -1 88 -25 49 -41 61 -73
61 -167 0 -81 -1 -84 -30 -105 -16 -12 -33 -22 -38 -22 -5 0 -15 -7 -22 -15
-7 -8 -44 -25 -81 -36 -68 -21 -69 -21 -101 -2 -42 24 -77 94 -78 154 0 35 -9
61 -35 105 -20 33 -38 69 -42 82 -9 38 7 91 39 127 42 48 88 49 133 1z m2378
-96 c-6 -22 -66 -47 -71 -30 -3 8 -8 8 -17 0 -9 -8 -14 -7 -18 3 -8 22 7 37
49 52 44 15 65 6 57 -25z m-893 -178 c23 -28 25 -59 9 -132 -9 -41 -16 -53
-37 -61 -32 -12 -66 -5 -92 21 -16 16 -20 34 -20 88 0 58 3 72 23 89 41 38 85
36 117 -5z m780 -199 c0 -24 -3 -27 -42 -37 -24 -6 -28 -3 -28 16 0 13 5 40
11 61 l10 39 25 -29 c13 -15 24 -38 24 -50z m-1441 -143 c23 -12 81 -101 81
-124 0 -12 5 -16 15 -12 8 3 15 0 15 -5 0 -7 9 -9 21 -6 75 20 129 -41 134
-150 2 -38 1 -76 -1 -85 -11 -39 -190 -114 -247 -103 -40 8 -67 61 -76 150 -6
52 -13 69 -44 105 -46 54 -55 96 -32 155 27 71 83 103 134 75z m731 -133 c23
-41 5 -61 -57 -65 -108 -6 -106 68 2 91 30 7 39 3 55 -26z"/>
<path d="M6458 11251 c-42 -33 -78 -94 -71 -119 4 -17 10 -21 22 -16 45 19
177 33 216 23 22 -6 50 -12 63 -13 12 0 22 -4 22 -8 0 -10 32 -10 46 0 6 4 14
17 18 29 6 18 1 25 -22 37 -17 9 -49 18 -71 22 -23 4 -59 20 -81 35 -48 35
-105 39 -142 10z"/>
<path d="M5902 11101 c-26 -5 -37 -15 -57 -55 -14 -27 -25 -55 -25 -61 0 -34
-61 -56 -98 -36 -10 5 -29 7 -44 4 -30 -6 -98 -66 -98 -87 0 -11 -30 -40 -120
-116 -16 -14 -32 -19 -45 -15 -11 3 -38 9 -60 12 -45 6 -78 30 -71 50 10 24
-11 13 -22 -13 -7 -14 -17 -22 -22 -19 -6 3 -10 2 -10 -4 0 -5 -25 -22 -55
-36 -46 -23 -55 -32 -55 -54 0 -14 7 -34 14 -44 9 -12 11 -28 7 -45 -9 -35
-45 -39 -147 -18 -81 17 -162 21 -180 8 -21 -14 -62 -78 -68 -106 -10 -40 -44
-86 -63 -86 -9 0 -30 -10 -47 -23 -51 -38 -65 -40 -113 -11 -33 19 -52 24 -73
19 -27 -6 -30 -11 -30 -43 0 -21 -9 -48 -20 -62 -21 -26 -28 -100 -10 -100 19
0 174 41 210 55 19 7 60 21 90 30 49 15 58 21 73 56 18 41 42 53 93 47 20 -2
30 -10 35 -28 3 -14 2 -31 -4 -37 -16 -21 0 -41 50 -64 26 -12 71 -32 99 -45
47 -22 74 -29 74 -20 0 2 -4 26 -10 54 -13 72 11 123 98 207 12 12 22 29 22
38 0 9 11 28 25 43 14 15 25 31 25 36 0 5 5 6 10 3 6 -3 23 3 38 14 15 11 59
32 97 46 39 15 104 44 145 63 63 31 86 37 140 36 44 0 76 -6 100 -18 47 -26
100 -37 121 -25 10 5 20 23 24 41 14 67 31 104 67 143 63 69 83 98 94 140 6
22 13 46 15 53 2 8 -5 19 -16 25 -10 7 -26 20 -35 30 -17 20 -108 30 -168 18z"/>
<path d="M7229 10898 c-25 -25 -49 -57 -53 -73 -7 -28 -49 -90 -76 -112 -8 -7
-38 -13 -66 -13 -75 0 -90 -31 -49 -94 23 -35 65 -34 146 4 78 36 91 46 112
87 12 23 28 35 54 42 46 13 139 3 154 -15 17 -21 97 -54 129 -54 15 0 38 9 52
19 19 16 24 27 21 53 -5 41 -23 78 -37 78 -6 0 -27 13 -46 29 -20 16 -58 36
-85 45 -27 10 -55 22 -62 28 -7 6 -44 13 -81 15 l-67 5 -46 -44z"/>
<path d="M6447 10585 c-31 -22 -67 -77 -67 -100 0 -12 -13 -39 -30 -61 -16
-21 -30 -44 -30 -50 0 -6 -11 -21 -25 -34 -20 -19 -30 -22 -62 -15 -76 14 -86
12 -94 -20 -11 -37 3 -91 31 -120 20 -22 24 -22 68 -10 26 7 73 23 104 34 32
12 64 21 72 21 7 0 26 6 40 14 35 18 185 15 252 -6 29 -8 56 -13 62 -9 18 12
73 164 63 177 -3 5 -28 20 -56 34 -27 15 -51 31 -51 38 -1 7 -2 23 -3 37 -1
18 -12 30 -41 45 -22 11 -40 18 -40 16 0 -3 -21 1 -47 9 -60 18 -123 19 -146
0z m66 -212 c22 -2 45 -7 49 -9 12 -8 9 -40 -5 -52 -20 -17 -67 -26 -67 -13 0
6 -5 10 -12 9 -15 -4 -41 49 -34 68 3 9 11 12 16 9 6 -4 30 -9 53 -12z"/>
<path d="M7016 10394 c-10 -26 -7 -104 4 -104 6 0 11 5 11 10 1 6 2 14 3 19 0
5 4 13 9 17 12 13 8 56 -5 48 -8 -5 -9 -2 -5 9 3 10 2 17 -2 17 -5 0 -12 -7
-15 -16z"/>
<path d="M8737 10363 c-7 -13 -2 -101 6 -109 4 -4 7 2 7 14 0 12 5 22 10 22
15 0 12 56 -4 69 -8 7 -16 8 -19 4z"/>
<path d="M3883 10185 c-32 -15 -42 -37 -69 -148 -8 -33 -38 -57 -65 -50 -12 3
-29 -3 -42 -14 -62 -57 -112 -53 -180 14 -26 25 -52 43 -59 41 -16 -6 -21
-193 -6 -221 8 -15 18 -17 71 -12 34 4 87 13 118 21 74 18 224 18 277 0 23 -8
76 -38 119 -66 43 -29 89 -52 103 -53 23 -2 25 1 23 33 -1 19 -5 58 -8 85 -8
57 -3 65 89 158 42 42 49 55 52 95 4 44 2 48 -27 61 -23 10 -34 10 -42 2 -15
-15 -102 -14 -130 1 -12 7 -38 23 -58 36 -45 29 -123 37 -166 17z m80 -243
c11 -5 -22 -42 -38 -42 -7 0 -19 7 -26 16 -11 14 -10 18 5 29 16 12 34 11 59
-3z"/>
<path d="M5613 10140 c-30 -13 -63 -68 -63 -106 0 -35 -24 -68 -57 -78 -12 -4
-32 -20 -43 -37 -12 -16 -30 -34 -41 -39 -29 -16 -82 -2 -118 32 -18 17 -35
28 -37 25 -11 -11 -12 -124 -2 -159 10 -36 14 -38 50 -38 22 0 87 16 145 35
158 52 261 47 398 -20 32 -15 59 -22 74 -18 20 5 22 10 17 37 -4 17 1 66 10
109 16 75 16 78 -2 91 -14 10 -24 11 -38 4 -10 -6 -32 -14 -48 -19 -28 -8 -29
-7 -24 19 3 15 8 46 11 70 l7 42 -56 26 c-61 28 -148 39 -183 24z m103 -205
c13 -8 24 -20 24 -26 0 -20 -83 -90 -99 -83 -9 4 -26 9 -38 11 -41 9 -51 102
-11 115 26 9 100 -1 124 -17z"/>
<path d="M9006 10116 c-65 -34 -71 -44 -80 -136 -5 -53 -11 -69 -32 -87 -14
-13 -33 -23 -43 -23 -10 0 -28 -9 -41 -20 -43 -37 2 -115 66 -113 18 1 68 18
111 39 l78 39 -3 53 c-3 46 -1 52 16 52 22 0 62 -40 62 -63 0 -13 6 -15 33
-10 41 9 151 8 199 -2 56 -11 81 0 106 44 28 49 28 54 -5 107 -23 36 -33 44
-51 40 -31 -5 -102 23 -102 41 0 7 -8 13 -18 13 -10 0 -27 6 -38 14 -27 19
-100 38 -154 40 -33 1 -61 -6 -104 -28z"/>
<path d="M2580 9999 c0 -5 5 -7 10 -4 6 3 10 8 10 11 0 2 -4 4 -10 4 -5 0 -10
-5 -10 -11z"/>
<path d="M6186 9993 c-6 -14 -9 -15 -15 -4 -6 9 -10 -4 -13 -35 -5 -57 -4 -61
16 -45 21 18 40 81 28 93 -6 6 -12 3 -16 -9z"/>
<path d="M7937 9973 c-11 -18 -18 -74 -12 -93 16 -50 55 -8 55 59 0 34 -3 41
-19 41 -11 0 -22 -3 -24 -7z"/>
<path d="M9699 9953 c-3 -16 -2 -42 1 -60 5 -30 6 -31 25 -17 16 12 18 18 7
34 -7 11 -10 31 -6 45 4 18 2 25 -9 25 -9 0 -16 -11 -18 -27z"/>
<path d="M8215 9716 c-38 -16 -61 -51 -70 -102 -4 -21 -15 -50 -24 -64 -9 -14
-18 -36 -21 -49 -7 -35 -65 -63 -116 -56 l-41 6 9 -67 c7 -59 5 -72 -13 -105
-19 -33 -20 -40 -8 -68 15 -35 26 -37 84 -15 278 102 429 127 547 89 56 -18
58 -18 78 0 13 12 20 31 20 57 0 21 7 65 16 97 17 60 13 124 -8 137 -6 4 -28
7 -50 7 -32 0 -46 6 -74 35 -18 19 -36 42 -39 51 -8 27 -42 41 -118 51 -97 13
-136 12 -172 -4z m175 -236 c30 -21 60 -67 60 -91 0 -30 -191 23 -204 57 -23
59 77 82 144 34z"/>
<path d="M4652 9700 c-18 -15 -26 -35 -32 -86 -9 -74 -23 -91 -69 -84 -8 1
-29 -14 -47 -34 -47 -51 -85 -49 -153 6 -28 23 -51 45 -51 50 0 4 -7 8 -15 8
-19 0 -19 -19 1 -80 12 -36 13 -53 5 -68 -6 -12 -11 -46 -11 -77 l0 -56 48 6
c26 4 85 16 131 26 119 27 260 29 331 4 30 -10 66 -29 80 -40 61 -53 175 -107
155 -75 -18 30 -25 211 -10 288 8 42 7 42 -22 42 -17 0 -44 -7 -62 -16 -18 -9
-34 -14 -37 -12 -2 3 7 38 21 78 15 44 21 78 16 83 -15 15 -143 49 -201 53
-44 4 -60 0 -78 -16z m146 -203 c19 -13 15 -25 -20 -57 -43 -38 -72 -38 -109
2 -34 38 -37 56 -8 66 23 9 117 1 137 -11z"/>
<path d="M4276 9664 c-9 -24 -7 -34 8 -34 13 0 26 20 26 41 0 15 -27 10 -34
-7z"/>
<path d="M5240 9530 c0 -5 5 -10 10 -10 6 0 10 5 10 10 0 6 -4 10 -10 10 -5 0
-10 -4 -10 -10z"/>
<path d="M7061 9510 c-25 -35 -21 -70 10 -70 11 0 19 -7 19 -16 0 -26 23 -10
32 22 5 16 6 44 3 62 -8 41 -34 42 -64 2z"/>
<path d="M5231 9501 c-7 -5 -12 -14 -10 -20 3 -6 9 -7 18 -2 7 5 12 14 10 20
-3 6 -9 7 -18 2z"/>
<path d="M8929 9462 c-3 -20 -2 -29 4 -23 5 5 7 19 5 32 -3 20 -5 19 -9 -9z"/>
<path d="M7343 9250 c-36 -15 -54 -52 -52 -108 2 -49 -11 -82 -33 -82 -14 0
-38 -27 -38 -43 0 -8 -9 -22 -20 -32 -16 -14 -30 -17 -74 -12 l-54 5 -11 -45
c-7 -24 -9 -60 -5 -78 5 -26 -1 -47 -22 -89 -24 -47 -26 -57 -14 -71 17 -21
30 -18 200 41 133 46 137 47 265 48 113 1 136 -2 175 -20 64 -31 118 -46 130
-39 6 4 10 28 10 53 -2 59 11 114 40 174 12 27 20 54 17 60 -7 19 -89 47 -119
41 -14 -3 -45 -22 -69 -44 -24 -21 -47 -39 -51 -39 -21 0 -15 30 20 103 68
137 67 134 24 148 -20 7 -51 12 -67 11 -17 -1 -53 4 -80 13 -55 16 -138 19
-172 5z m175 -250 c20 -16 22 -22 10 -33 -31 -30 -64 -47 -94 -47 -25 0 -37 8
-62 44 -18 24 -32 46 -32 49 0 4 19 9 78 23 8 1 16 5 19 8 7 6 50 -17 81 -44z"/>
<path d="M5097 9184 c-16 -9 -37 -12 -49 -8 -22 7 -19 -3 11 -38 21 -24 29
-23 57 8 39 41 28 62 -19 38z"/>
<path d="M6153 9040 c-9 -23 -8 -32 3 -41 11 -9 14 -8 14 5 0 9 4 16 9 16 5 0
9 11 9 25 0 34 -21 31 -35 -5z"/>
<path d="M4235 9037 c4 -19 2 -26 -5 -22 -5 3 -10 1 -10 -4 0 -6 5 -11 10 -11
12 0 33 50 25 58 -3 3 -5 -1 -5 -9 0 -12 -2 -11 -11 1 -8 11 -9 8 -4 -13z"/>
<path d="M8047 9003 c-15 -15 -6 -33 17 -33 19 0 23 4 19 20 -5 20 -23 26 -36
13z"/>
<path d="M8065 8950 c-3 -5 -1 -10 4 -10 6 0 11 -7 11 -15 0 -8 5 -15 10 -15
11 0 13 11 4 34 -7 18 -20 21 -29 6z"/>
<path d="M6420 8783 c-8 -3 -25 -15 -37 -26 -20 -18 -23 -31 -23 -94 0 -81
-18 -113 -65 -113 -18 0 -25 -5 -25 -18 0 -29 -34 -62 -64 -62 -37 0 -64 16
-108 61 -49 51 -72 54 -46 6 6 -12 15 -60 20 -107 5 -47 10 -94 12 -105 3 -11
5 -23 5 -27 2 -17 62 -6 122 22 35 16 93 34 129 39 130 21 319 7 369 -27 30
-21 124 -62 142 -62 8 0 10 14 6 50 -5 40 -3 52 9 57 18 7 64 95 64 123 0 28
-62 53 -118 47 -42 -5 -92 -38 -92 -61 0 -15 -38 -38 -50 -31 -12 8 -13 30 -1
53 37 72 101 212 101 220 0 5 -17 12 -37 15 -21 3 -91 15 -156 26 -124 22
-133 23 -157 14z m156 -224 c53 -32 43 -65 -33 -103 -47 -24 -60 -20 -102 26
-34 36 -42 40 -69 35 -25 -5 -30 -3 -25 8 3 8 13 15 22 15 9 0 43 9 76 20 77
24 91 24 131 -1z"/>
<path d="M6029 8710 c-15 -4 -36 -17 -48 -29 l-21 -21 22 -9 c15 -5 31 -2 54
13 49 31 44 60 -7 46z"/>
<path d="M7921 8654 c0 -11 3 -14 6 -6 3 7 2 16 -1 19 -3 4 -6 -2 -5 -13z"/>
<path d="M5197 8613 c-4 -3 -7 -14 -7 -24 0 -10 -8 -22 -17 -28 -14 -7 -15
-13 -6 -21 13 -14 31 13 39 56 5 25 2 29 -9 17z"/>
<path d="M7147 8543 c-10 -3 -16 -10 -14 -16 2 -7 -1 -25 -8 -42 -14 -34 -10
-55 11 -55 8 0 14 10 14 24 0 13 7 29 15 36 8 7 15 23 15 36 0 24 -1 25 -33
17z"/>
<path d="M5153 8435 c-3 -9 -3 -18 0 -21 9 -9 27 6 27 22 0 19 -19 18 -27 -1z"/>
<path d="M7135 8380 c-4 -6 -3 -16 3 -22 6 -6 12 -6 17 2 4 6 3 16 -3 22 -6 6
-12 6 -17 -2z"/>
<path d="M7757 8323 c-13 -12 -7 -23 13 -23 11 0 20 7 20 15 0 15 -21 21 -33
8z"/>
<path d="M6999 8174 c-12 -14 -11 -16 5 -13 11 2 21 10 24 17 5 17 -13 15 -29
-4z"/>
<path d="M6128 8133 c-24 -6 -23 -39 2 -46 11 -3 20 -12 20 -21 0 -10 6 -13
15 -10 18 7 19 43 1 67 -7 9 -15 16 -17 16 -2 -1 -12 -3 -21 -6z"/>
<path d="M4101 8081 c-10 -7 -10 -10 -1 -16 6 -4 16 -3 22 3 13 13 -4 23 -21
13z"/>
<path d="M6100 8054 c0 -8 5 -12 10 -9 6 4 8 11 5 16 -9 14 -15 11 -15 -7z"/>
<path d="M6866 8012 c-7 -12 32 -48 41 -38 8 8 -8 38 -24 43 -6 2 -14 0 -17
-5z"/>
<path d="M6115 7939 c-18 -34 -14 -59 9 -59 13 0 36 53 36 83 0 20 -31 3 -45
-24z"/>
<path d="M4809 7940 c-12 -8 -12 -12 3 -26 17 -17 48 -13 48 5 0 17 -35 31
-51 21z"/>
<path d="M4090 7924 c0 -8 5 -12 10 -9 6 4 8 11 5 16 -9 14 -15 11 -15 -7z"/>
<path d="M5970 7706 c0 -8 -11 -28 -25 -44 -27 -32 -31 -42 -15 -42 6 0 10 7
10 15 0 8 5 15 11 15 16 0 78 53 73 62 -9 14 -54 9 -54 -6z"/>
<path d="M5074 7565 c-4 -8 -13 -15 -22 -15 -8 0 -12 -3 -9 -7 8 -8 57 17 57
29 0 14 -20 9 -26 -7z"/>
<path d="M5061 7504 c0 -11 3 -14 6 -6 3 7 2 16 -1 19 -3 4 -6 -2 -5 -13z"/>
<path d="M5776 7471 c-4 -6 -1 -11 6 -11 8 0 21 -9 31 -20 27 -32 52 -18 29
17 -10 17 -59 27 -66 14z"/>
<path d="M5040 7389 c-10 -6 -11 -9 -2 -9 6 0 12 -7 12 -16 0 -8 -4 -12 -10
-9 -6 4 -10 -5 -10 -19 0 -27 6 -31 27 -18 12 8 15 70 3 77 -3 2 -12 0 -20 -6z"/>
<path d="M1515 9560 c-9 -28 4 -68 16 -49 12 19 11 69 0 69 -5 0 -13 -9 -16
-20z"/>
<path d="M10720 9504 c-7 -18 -6 -39 3 -72 26 -87 57 -45 42 55 -7 49 -30 58
-45 17z"/>
<path d="M9954 9035 c-23 -16 -41 -90 -26 -109 5 -6 12 -24 16 -39 13 -55 37
-19 53 80 6 36 -3 83 -15 83 -4 0 -17 -7 -28 -15z"/>
<path d="M9140 8529 c0 -7 -3 -9 -6 -6 -13 13 -64 -27 -64 -49 0 -12 -5 -24
-11 -26 -7 -2 1 -25 21 -61 17 -31 29 -60 26 -65 -2 -4 -1 -14 3 -21 7 -10 13
-10 30 -2 19 11 21 19 19 122 -1 61 -6 113 -10 115 -4 3 -8 0 -8 -7z"/>
<path d="M8185 7996 c-15 -11 -17 -22 -12 -66 6 -53 23 -78 41 -60 11 11 -1
43 -14 35 -5 -3 -10 -2 -10 4 0 12 28 41 41 41 17 0 9 39 -10 49 -13 7 -23 6
-36 -3z"/>
<path d="M9091 7914 c0 -11 3 -14 6 -6 3 7 2 16 -1 19 -3 4 -6 -2 -5 -13z"/>
<path d="M8910 7900 c0 -5 5 -10 11 -10 5 0 7 5 4 10 -3 6 -8 10 -11 10 -2 0
-4 -4 -4 -10z"/>
<path d="M8160 7746 c0 -8 6 -16 13 -19 17 -6 49 12 42 24 -10 15 -55 11 -55
-5z"/>
<path d="M7150 7401 c0 -11 5 -23 10 -26 13 -8 13 -68 0 -81 -5 -5 -5 -15 -1
-23 17 -27 44 5 61 73 16 58 13 85 -5 56 -10 -17 -45 -12 -39 5 4 9 0 15 -10
15 -9 0 -16 -8 -16 -19z"/>
<path d="M7924 7299 c-7 -12 12 -29 34 -29 19 0 14 18 -7 30 -14 7 -22 7 -27
-1z"/>
<path d="M7167 7163 c-15 -14 -6 -23 23 -23 32 0 40 14 14 24 -20 8 -29 8 -37
-1z"/>
<path d="M3020 9043 c0 -5 12 -26 25 -47 l24 -40 11 28 c13 34 13 32 -6 50
-16 16 -54 22 -54 9z"/>
<path d="M3040 8776 c0 -16 28 -42 36 -33 8 7 -14 47 -26 47 -6 0 -10 -6 -10
-14z"/>
<path d="M3107 8763 c-10 -9 -9 -23 2 -23 5 0 11 7 15 15 5 15 -5 20 -17 8z"/>
<path d="M3050 8709 c0 -5 5 -7 10 -4 6 3 10 8 10 11 0 2 -4 4 -10 4 -5 0 -10
-5 -10 -11z"/>
<path d="M3904 8444 c3 -9 6 -20 6 -25 0 -5 9 -9 20 -9 15 0 20 7 20 25 0 20
-5 25 -26 25 -20 0 -25 -4 -20 -16z"/>
<path d="M6841 6681 c-9 -6 -6 -14 15 -30 42 -33 77 -24 37 11 -28 24 -38 27
-52 19z"/>
<path d="M6052 6537 c-6 -7 -7 -18 -3 -26 7 -11 11 -9 20 7 6 11 11 23 11 26
0 11 -17 6 -28 -7z"/>
<path d="M6140 5344 c0 -9 5 -14 12 -12 18 6 21 28 4 28 -9 0 -16 -7 -16 -16z"/>
</g>
</svg>
